<?xml version="1.0" standalone="no"?>
<svg xmlns="http://www.w3.org/2000/svg" id="wrapper" viewBox="0 0 860 1021.361" preserveAspectRatio="xMinYMin"
  height="1021.361" width="860" style="background-color: transparent">
  <g id="map-group">
    <svg xmlns="http://www.w3.org/2000/svg" id="map" width="860" height="1021.361" version="1.1"
      viewBox="0 0 860 1021.361" preserveAspectRatio="xMinYMin">
      <g id="g1039">
        <path id="Andhra_Pradesh" fill="#cc3333" fill-opacity="1" stroke="#000" stroke-dasharray="none"
          stroke-dashoffset="0" stroke-linecap="butt" stroke-linejoin="miter" stroke-miterlimit="4" stroke-opacity="1"
          stroke-width="1.001"
          d="M419.8045 684.1693a1.3939 1.3939 0 0 1-.1927-.4155c-.049-.0869-.0378-.0755-.1057-.185 0 0-1.6923 2.848.3021.6005Zm-.1927-.4155c.1133.1889.1851.3173.2342.408.0831-.0113.1209-.0076.2116-.019-.0227.0379-.0945.0719-.1587.1096a.4193.4193 0 0 0 .0076.0114l.2833-.0302a.7857.7857 0 0 1-.2191.1473c.0302.068.015.0604-.019.015-.3965.2192-1.22.6347-2.1341 2.021-1.239 1.8735-1.7565 4.5782-1.6847 5.9342.0755 1.3599.1397 1.0048-.3778 1.4354-.5137.4307-.7403.8348-1.186 1.409-.442.5742-1.02.3098-1.9039.3098-.8877 0-1.6318-.2947-2.002.0642-.3626.3588-1.3107 1.4278-1.9038 1.4996-.5893.0755-1.5525-.0831-1.9982.5628-.442.6422.306.933.1586 1.715-.151.7894-.9216.3021-1.6582.593-.7328.287-1.1748.7064-1.8396.5666-.6686-.1473-1.02-.2266-1.5299.0604-.5175.2871-1.2692.0982-1.7829-.1888-.5175-.2871-.6535-.2191-.6535-.2191s-.0944.9179-.3135 1.3447c-.219.4269-.8688.3513-1.3107.7782-.4458.4306-.3664.5817 0 .9405.3701.3551.374.8462.374 1.56 0 .714-.6951.3023-1.0615.155-.3702-.1436-1.0955-.4344-1.9076-.4344s-.6686-.121-1.4052-.408-.6724-.151-1.186.0642c-.2343.0944-.4005.0416-.5176-.0944-.238-.1096-.3475-.4684-.3475-.8688a.5137.5137 0 0 0-.0982-.3135c-.2531-.1814-.6837-.2758-1.2541-.5062-.8877-.355-1.2465-.1511-1.2465-.1511s-.593.2833-.816.9972c-.219.714-.0717.6497-.219.9368-.1436.2833-.4269.6422-1.0917.9972-.3664.2002-.6195.1285-.7933-.0302-.2266-.1057-.3512-.3626-.3966-.5704-.015-.068-.0718-.136-.1473-.204-.3815-.272-1.0954-.5476-1.628-.7554-.7366-.2833.3777.9141.1548 1.6243-.1813.5817-.5553 1.3107-.34 1.6469.0378.0189.0643.0378.1134.0491.661.1436.8839.287 1.6243.6422.7328.3626.3664-.4911.8083-.2078.4458.287 1.4014.7101 2.3609.7101.3286 0 .5213.0643.6421.1738.4004.1662.3211.5968.3816 1.2012.0755.7857-.155.3098-.155.593 0 .2872.68.5062.529.9369-.1436.4306.0679.5515-.155 1.1256-.2266.5742-.6535.6648-1.6885.593-1.0312-.0755-.6572-.1586-1.2465-.3777-.593-.2115-.3777-.2984-.9708-.151-.1888.0453-.306-.0114-.3928-.0907-.3022-.087-.3324-.4873-.3324-.5477a6.4404 6.4404 0 0 1-.6837-.3967 9.7079 9.7079 0 0 1-.5402-.3701 7.9023 7.9023 0 0 1-.9179-.7555c-1.035-1.001-.5175-.9368-.8121-1.0766-.2985-.1435-.7366-.6421-.8122-1.5034-.0226-.272-.0793-.423-.1662-.5175-.1964-.0604-.4797-.0113-.8688-.0869-.4835-.0906-.6157-.1322-.6799-.2455-.1473-.0642-.1587-.151-.2002-.3626-.0756-.3589-.7366-.7177-.7366-1.2843 0-.0454-.0113-.0642-.0189-.0945-.2266.0303-.661.4307-1.0199.68-.5137.3588-2.4364 1.2163-2.4364 1.2163s-.7555-.3438-.9066.8726c-.1435 1.22-.8725 1.2692-.8725 1.8433 0 .1285.0453.2153.1209.2833.3135.1247.8763.0831 1.5109.1284.2418.019.3777.0756.4495.1436.476.17-.0491.6422-.238.9443-.2266.3589-.083.4986.4344.9973.5175.5024.17.5061-.1246.9405-.2947.4269-.2267.5062-.374 1.1521-.151.646-.8801 1.156-1.4694 1.6583-.5892.4986-.9103.1889-1.2767.6233-.3702.4306-.8915.5666-1.6243.7819-.3249.0944-.5402.0453-.6837-.0945-.2984-.1322-.4042-.5137-.4042-.9972 0-.2644-.0604-.4495-.1775-.5666-.204-.083-.4949-.0453-.8613.0945-.4344.17-.8423.1133-1.118-.1134a.9519.9519 0 0 1-.4987-.7706.5817.5817 0 0 0-.1435-.3437c-.2833-.1058-.7177.0907-1.0501.51-.5138.6459-1.5488 1.4278-1.8434 1.4996-.238.0566-.5213.1888-.816-.0491a.7857.7857 0 0 1-.355-.3249.8121.8121 0 0 0-.1133-.1398c-.238-.0566-.4269.34-.6497.6082-.2984.3626-1.6998 1.4052-2.4364 1.4052-.7366 0-.9444-.2644-1.5299-.1889-.5892.0756-1.186 1.424-2.002 1.5639-.8121.1397-.899-.1285-1.7754-.3438-.8914-.2153-.4343.34-.8763.6233-.4457.287-.374-.1285-.593.1586-.2267.2833-.0832.5024-.5969 1.4354-.5137.9293-.5704.1171-.4986.9066.0756.7857.2115 1.5223-.1549 2.308-.3701.7857-1.254.6535-.8121 1.4354.4457.7895-.2153.714-.4382 1.5034-.2228.7857-.899.6232-1.7791 1.1219-.4533.2568-.7253.2266-.9141.0566-.2796-.1133-.4156-.4721-.5478-.8612a.5213.5213 0 0 0-.1926-.2493c-.4533-.1889-1.2239-.0869-1.8774-.3513-.8839-.355-1.186.491-2.3722 1.0652-1.1823.5666-1.2503.8424-1.0312 1.341.2229.4986.1587 1.7149.1587 2.7197 0 .9972.491 1.443-.4722.8688a6.278 6.278 0 0 1-.7555-.544c-.6421-.4986-1.171-1.069-1.6167-1.4505-.4042-.2568.0944.8122.0944 1.2806 0 .5023-.1284 1.2843-.7177 1.7149-.5892.4306-1.2578.0151-3.2485-.34-.5893-.1057-.8764-.2644-1.0464-.423-.3173-.204-.3588-.4307-.457-.5666-.1284-.0454-.3324-.0378-.714.049-1.1445.2645-1.7489.7404-2.3532.2305a1.254 1.254 0 0 1-.3098-.2644 1.9869 1.9869 0 0 0-.1889-.1965c-.4117-.2568-.6119.2078-1.2087.7328-.4609.4004-.7442.3173-.9595.1511-.1662-.0755-.2833-.219-.3853-.3324-.306-.1133-1.3032.3816-2.1228.2418-.5893-.0982-.7669-.2342-1.8736-.2191-1.171.0189-.6573.6573-.6573.6573s-.0529.355.3135 1.0614c.3702.7177.4155.8537.3438 2.002-.0756 1.1446-.8613.8688-1.9643.8688-1.1105 0-.9896.1436-1.2843.782-.2984.6496-.8083.491-1.8396-.1512l-.1322-.0906c-.8688-.5666-.8688-.7366-1.492-.1927-.6686.5704-.7177.5893-1.3146.374-.5892-.2153-.5892-.2946-.8121.0642-.1247.2002-.3929.1738-.6157-.0378-.2267-.1322-.4495-.4495-.4873-.9216a.6497.6497 0 0 0-.1133-.3287c-.3287-.1473-.967.2267-1.749.9444-1.1105.9972-1.0085.4193-1.968.2795-.9556-.1436-1.035 0-2.2173-.5024a2.6102 2.6102 0 0 1-.6875-.3853c-.4155-.2682-.374-.4533-.8197-.7744-.8007-.4872-.5854.3476-1.8358.3476-1.254 0-2.1833.7177-4.0304 0v-.034a1.1634 1.1634 0 0 1-.3778.5024c-.846.6383-2.8632 2.017-4.0304 1.5902-1.171-.423-2.2287.1134-2.6555-1.0576-.423-1.171-1.0577-1.9114-1.6998-1.594-.6346.3172-3.5017-.2154-4.2458.7403-.7404.9557-2.0134 1.594-1.6998 2.6555.321 1.0614 2.0209 1.8056 1.9151 2.9728-.1058 1.171-.2153 1.171.2115 1.9113.4231.7442 1.0615.9595.3173 1.8056-.7441.85-2.4402 4.3516-3.6074 4.4573-1.171.1096-2.9728-.3173-1.3825.9595 1.594 1.273 2.8708.423 3.2939 2.4402.423 2.017 1.4845 3.29 2.0133 3.6111.5289.3173 1.3788 5.5188-.2115 5.6283-1.594.102-4.0342 1.1635-5.3072.7404-1.273-.423-2.3344-1.0615-3.7132-1.171-1.3825-.102-2.5497.4269-2.5497 1.2768 0 .8499.1058 1.3787 1.1672 2.1228 1.0577.7442 2.7575 1.3788 2.3344 2.6555-.423 1.273.5289 1.6999-.8499 2.4402-1.3787.7442-1.8018 3.2901-1.9113 4.4573-.1058 1.171-.952 2.444 0 3.294.9556.8498 2.3381 1.9113 3.5054 2.017a1.9869 1.9869 0 0 1 1.594 1.1672s-1.594.3173-1.6998 1.4845c-.1058 1.171 1.5903 3.9285 2.9728 4.1438 1.3787.2116 4.0342.9557 4.0342.9557s.2116-2.2286.2116-2.8708c0-.6346 1.2767-1.6998 2.2286-.6346.9595 1.0615 2.9728 2.2287 3.717 2.5497.7441.3173 1.6998.1058 1.8055-.7441.1058-.85 0-1.8056.85-1.594.8499.2153 1.5902.744 2.2286 1.4882.6346.7404 2.0171 1.4883 1.273 2.6555-.7442 1.1672-.423 1.4845-1.0615 1.6998-.6383.2078-1.171-.2153-2.2286-.4268-1.0614-.2115-2.1229 0-2.1229.85 0 .8498 1.4845 2.5496 1.9114 3.1842.423.6346.8499 2.0172.8499 2.867 0 .85-1.594.7404-2.5498-.9594-.9556-1.6998-5.8398-.423-7.5396-2.4402-1.6998-2.017-2.4402-2.5497-3.6074-3.29-1.171-.7442-2.3344-1.9114-2.5497-1.3788-.2116.5288 1.0652 1.4845 1.2767 3.5016.2115 2.0171 1.3788 2.867 1.3788 2.867s1.2767 1.3788.7441 2.123c-.5288.7403-1.3825 1.6998-1.3825 2.4401 0 .7442.4268 2.1267.4268 2.1267s4.14.423 4.2458 0c.1058-.4268.7441-.321.4268-1.8056-.321-1.4883-1.0652-1.6998-.9594-2.3344.1095-.6384 1.3825-1.171 1.9151-.321.5288.8498 2.6517 2.3381 3.7132 2.3381 1.0614 0 3.8227 1.4845 4.2495 1.6998.4231.2116 1.0577 1.2692 1.1672 1.9076.1058.6384 1.6999 1.4883 2.4402.4268.7442-1.0614 2.123-1.171 2.6518-1.3825.5288-.2115 1.2767-.3173 2.3381-.3173 1.0577 0 .6384-.6383 1.0615-1.171.4268-.5288.2115.0038 1.0577-1.273.8499-1.273 1.8093-3.0747 1.8093-3.0747s.2116.6346.9557 1.5865c.7441.9594 1.0577 1.2767 2.4402 1.4883 1.3787.2153 2.1229-.85 3.1843-.7404 1.0615.1058 2.2287.2115 2.3382 1.273.1058 1.0576-.4268 1.4883-.6384 2.444-.2115.9556.7404 2.969 2.2287 4.0304 1.4845 1.0614 1.594.9557 3.0785.85 1.4883-.1059 2.6556 0 2.6556 0s.423 1.2729.423 2.3343c0 1.0652-.3173 3.0786.2153 4.1438.5289 1.0577.7404 2.1229 2.546 2.0133 1.8056-.1057 2.6555-.1057 2.6555-.1057s1.3787.9557.8499 1.594c-.5288.6384-.7442 1.5941-.9595 2.5498-.2115.9556-.102 1.5903-.7403 2.867-.6384 1.273-.5289 2.3344-2.4402 3.1806-1.9114.8499-3.2939 1.2767-3.5054 1.594-.2116.321-.85.6384-1.1672 1.4845-.3173.85-1.6999 2.5535-2.123 2.765-.1283.0605-.4948.019-.933-.0566.0945.3777.2078.7101.3438.9255.5855.9065 2.2513 1.1747 3.0295 1.4996.7819.3248 2.4628.8461 2.6555 1.6242.1926.7782 1.1596 1.8736 1.8735 1.8736.714 0 1.6885-.3777 1.6885-.3777s-.1246-2.0096-.1246-2.527c0-.5176 1.1067-.5742 1.4958-.189.3929.3929 1.1786.782 1.4354.782.2644 0 .3778-1.307.4382-2.2174.068-.9065-.1775-1.001.4722-1.779.6459-.7782.6421-1.3524 1.0274-1.9379.389-.5817 1.171-.3626.7177-1.4656-.4533-1.103-1.0274-2.0322-1.0274-2.0322s.0642.0113.8423-.2493c.7782-.257 2.0474-.7102 2.4364-1.749.3891-1.0387-.321-2.0889.7782-1.375 1.1068.7178.6006.7253 3.8453 1.4355 3.241.7177 5.1826 1.239 6.025.7177.8423-.5175 1.1067-1.02 2.4704-1.1521 1.3598-.1322 2.342-.1587 3.12-.0945.7782.0643 3.6981-1.696 4.2799-2.2777.5854-.5855.8348-.6988 1.0312-1.2843.1926-.5817-.6648-1.2881.4382-1.8736 1.103-.5817 2.561-1.7414 3.3996-1.0275.8461.714 1.4014.627 2.4402.559 1.0388-.0641 1.3674-.438 2.342.408.9745.8424.6421 1.9303 1.8131 2.0625 1.1672.1284 1.9378-.3929 2.6517-1.6885.7177-1.2956.4269-2.0133 1.594-2.4666 1.171-.4533 1.6735-1.4694 2.0625-2.3118.389-.8423-.389-1.6243.7782-1.56 1.171.0642 2.138-.1171 2.595-.3136.4533-.1964-.1964-.083 0-1.2465.1927-1.171.1889-1.2276 1.0275-1.035.8461.1964 1.511-.0113 1.3145-.4684-.1964-.4533-.8121-2.3269-.8121-2.716 0-.389 1.0614-1.8962 1.9038-1.2465.846.646 3.615 2.3911 3.8718 1.8094.2644-.5855-.5175-5.1146-.8424-6.2176-.3248-1.0992-.4533-2.138-1.6243-4.2155-1.1672-2.0776-1.5978-2.9237-2.2475-4.091-.6497-1.1709-1.749-4.4572-1.8131-4.714-.0643-.2607.204-1.375 1.4354-2.2174 1.2352-.8461 2.1833-2.2664 2.3117-2.6555.1322-.389-1.6167-8.4387-1.8093-9.1526-.1965-.7101-3.0333-8.499-2.969-9.1488.068-.6497-.8613-7.1392-.34-7.4641.5175-.3249 3.1956-2.4062 3.7774-3.2486.5855-.846 1.6129-2.3193 1.9377-2.969.3249-.6459 1.613-3.7622 1.8736-4.2155.2569-.4533 5.7643-5.0617 6.9315-5.0617 1.171 0 5.0844-.442 6.1194.5326 1.0425.9746 1.3523 2.2664 2.0662 2.6555.7101.389 2.9992 1.5412 3.7774.374.7781-1.1672 3.683-5.9683 4.6537-6.686.9746-.7101 2.0322-.1964 1.9642-2.4666-.0642-2.2665.0416-2.5724 1.5337-3.0257 1.492-.4533 1.7678-7.0788 2.0284-7.4037.2606-.3248 3.1541-1.6205 4.0607-1.7489.9103-.1322 4.0418 2.4553 4.5593 2.7197.5213.2569 3.4374-.0604 4.344-.1889.9065-.1322 5.1221-1.375 5.1221-1.375s3.7547-2.5308 5.2468-2.5912c1.492-.068 4.4686-1.7943 5.2468-2.3118.7781-.5212 1.9075-2.0209 2.6819-2.2815a1.205 1.205 0 0 0 .6573-.6082l-1.1824.1398s-2.478.7177-2.6819.2002c-.2078-.5137-1.8585-2.8708-1.8585-2.8708s.4193-1.2465 1.5525-1.3485c1.1332-.1058 1.6432 1.4354 2.4667.2002.2568-.3853.5061-.4986.7252-.491.4797.0301.831.71.831.71l.4949 2.3874c.102-.5666.151-1.2806.151-2.1607 0-2.3986-1.3031-5.379-1.4353-6.8068-.1285-1.4279-.7517-4.5933.1586-4.5933.9066 0 11.3397-6.6218 12.1179-7.4641.778-.8424 2.1417-1.0577 3.3732-1.2466 1.2314-.1964 1.813-1.0123 2.5308-1.5336.7101-.5175 2.5346-.3324 3.1843-.6535.6497-.3248 8.0912-6.9957 8.0912-6.9957s1.0274-4.869 1.0916-5.8436c.0642-.9707.34-3.7585 1.2466-4.3402.9103-.5855 5.19-5.0239 7.5925-5.9305 2.3986-.9103 11.0904-5.8284 11.8043-7.0637.714-1.2314 4.344-6.3648 5.1863-7.3356.8424-.9746 6.093-6.9957 6.8069-7.9023.714-.9066 1.6431-1.1445 2.0284-4.0002.2569-1.851 1.3977-2.8973 1.56-3.5281a5.6283 5.6283 0 0 1-1.6468.1435c-1.2164-.1057-2.75 1.375-4.5442 1.5865-1.798.2116-1.6885 2.2664-2.2702 3.6452-.5817 1.3712-2.0096 1.8471-2.697 2.5308-.6876.6875-1.5866.899-3.3808 1.0086-1.7943.102-2.9577.102-5.175.2644-2.2212.1549-3.7548-.423-4.2836-1.2163-.5288-.7933-.9481-1.1634-1.8471-2.2211a6.788 6.788 0 0 1-1.2164-2.0058s-.2644.8424-.3701 1.424c-.1058.5818-1.001.1058-1.7414-.8423-.7404-.9519-.2115-2.1682-.5288-3.0672-.3173-.8952-.7933-1.1597-.7933-1.1597l-.8461 1.5299c-.5289.9519-1.3183 1.2163-1.953.8461-.6345-.3702-.899-.7932-2.2172-.2644-1.3221.5288-.5855 1.0048-.5855 1.322 0 .3174-.2645 1.4242-.6838 1.953-.423.5288-1.0576.1586-1.2163.423-.1586.2645.1587 1.375.1587 2.327 0 .9518-.6875 1.8508-1.5865 3.0596-.899 1.22-3.7472 2.9615-5.0164 3.3845-1.2692.423-1.6922.5817-1.9038 2.2173-.2115 1.6394 1.0577 2.697.952 3.649-.1058.9481-1.0577 1.0577-1.1635 1.851-.1058.7932 1.5336 1.473 1.5336 1.473s-.5817.952-1.2692 1.2164c-.6837.2644-2.0058-.3173-2.7461-.476-.7404-.1586-1.4241-.7365-2.4818-1.1067-1.0576-.3702-1.375.3173-1.9567 1.7413-.5817 1.4279-1.4807 1.1635-2.8519 1.798-1.375.6347-1.6922 1.2164-1.6922 1.2164s-1.1106.4722-1.1106-.4797c0-.9482-1.0048-2.799-1.5865-3.1693-.578-.3701-1.3712-3.1163-1.4732-3.4336-.1095-.3173-1.4278-.2644-1.9038.1058-.476.3702-1.0576 1.5336-2.0095 2.75-.952 1.2124 0 1.4278.1057 2.2172.1058.7933-.3135.899-.3135 1.9038 0 1.001.2078 2.0058.4193 2.5346.2115.5289.3702 1.3221.3173 2.4818-.0529 1.1634-1.1105.9519-1.6923 1.6394-.5817.6875-.7366 1.375-.948 1.6885-.2116.3173-.6347.2644-1.375-.155-.7404-.423-1.9567-1.2691-3.1202-1.5864-1.1596-.3173-3.4827.1586-4.276.423-.7932.2645-1.7451 2.3798-2.5384 2.5347-.7932.1586-1.8509.2644-3.0596.3173-1.2164.0529-2.1154 1.4278-2.9086 2.3797-.7933.9482-2.5913 1.6356-3.6452 1.6356-1.7414.1549-3.4978 1.3561-4.9748 1.7754Zm30.9972 23.1176c-.3702.0113-.6573.287-.748.9406-.2266 1.5676.0945 2.342.0945 2.342s.1133 2.24 0 2.6856c-.1133.4495-.6535.9066-.0944 2.2476.559 1.3447 0 3.0219 0 3.4676 0 .2266.5024 1.2163.6535.8424.185-.4458.3853.1246.5666.0302.151-.0756.2228-.68.34-.8726.151-.2417.676-.9821.6572-1.375-.0302-.6421-.6913-.9783-.8424-1.4694-.219-.695-.3248-.7328-.3777-1.6242-.0151-.2947.1209-.7253.0642-1.1861-.1549-1.2768.3702-1.8812.6573-2.4364.5364-1.0388 1.137-1.001.1889-2.0587-.2003-.219.253-.627.0906-.8121-.4042-.4609-.8801-.7253-1.2465-.7177Z"
          opacity="1" stop-color="#000" stop-opacity="1"
          style="font-variation-settings: normal; fill: rgb(204, 51, 51); stroke: rgb(0, 0, 0); stroke-width: 1.001; pointer-events: auto;"
          vector-effect="none" data-originalStrokeWidth="1.001" pointer-events="auto" /><text id="Andhra_Pradesh_label"
          x="-42.6603" y="829.0486" style="font-size: 41.2297px; stroke-width: 3.43581; display: none;"
          transform="rotate(-30)">
          <tspan id="Andhra_Pradesh_tspan" x="-42.6603" y="829.0486" dy="0"
            style="font-style:normal;font-weight:400;font-size:17.179px;font-family:Arial;text-align:center;text-anchor:middle;fill:#6a0707;stroke-width:3.43581"
            fill="#6a0707">Andhra Pradesh</tspan>
        </text>
      </g>
    </svg>
  </g>
  <text id="credit-text-svg" font-family="Century Gothic,Segoe UI,Lucida Grande" font-size="8" font-weight="bold"
    fill="#000">
    <tspan id="credit-tspan-svg" x="57.333333333333336" y="1012.5853204116821" dy="0">
      Created with mapchart.net
    </tspan>
  </text>
</svg>