<?xml version="1.0" standalone="no"?>
<svg xmlns="http://www.w3.org/2000/svg" id="wrapper" viewBox="0 0 860 1021.361" preserveAspectRatio="xMinYMin"
  height="1021.361" width="860" style="background-color: transparent">
  <g id="map-group">
    <svg xmlns="http://www.w3.org/2000/svg" id="map" width="860" height="1021.361" version="1.1"
      viewBox="0 0 860 1021.361" preserveAspectRatio="xMinYMin">
      <g id="g1089">
        <path id="Chhattisgarh"
          d="M465.0008 487.451c-2.0927 0-4.2987.0529-6.3498.1738a131.6638 131.6638 0 0 1-.4495 2.1757l-1.8924 5.1146-.7555 1.3297-4.5518.3777h-.9443s2.459 2.274 3.785 3.0332c1.3296.7555 1.5184 2.2702 1.5184 2.2702l-.5666.9444-2.085 2.4666s-1.5148-.5666-2.463-1.3259c-.9443-.7554-2.6517-1.137-2.6517-.5666 0 .5666-.7592 1.3221-1.7073 1.3221-.9444 0-2.4629 1.5185-2.4629 1.5185s-1.322-.3815-3.0294-1.137c-1.7036-.7554-2.4629-1.137-3.2221-1.137-.7555 0-2.0851-.7592-2.8406-1.7073-.7555-.9444-1.8963-1.1332-1.8963 0 0 1.137-.3777 3.222-2.2702 2.8443-1.8962-.3777-1.7073 1.3259-2.6555-.5666a10.5124 10.5124 0 0 0-2.274-3.0332l.189 2.0851s1.5184 1.511 1.7073 2.459c.1889.9482.7555 1.7074 0 2.8444-.7593 1.1333-2.8444 1.8963-3.0333 2.8406-.1888.9481 1.5186 2.0851 2.8444.9444 1.3221-1.1332 3.4072-2.2665 4.3553-1.3221.9482.9443 2.6555.7555 3.411 3.0294.7555 2.274 0 3.2222 2.0851 2.8444 2.0851-.3777 3.7887-2.274 4.548-1.137.7555 1.1332 0 1.511 1.322 2.8406 1.326 1.3259 1.326 1.137 0 2.4629-1.322 1.3258-1.5109 1.8962-1.6997 3.411-.1927 1.5147-.5704 2.274-2.2778 1.8924-1.7036-.3777-2.8406-.5666-3.9776 0-1.1332.5666-2.274-.3777-2.274.5666 0 .9481 1.3259.952 0 2.0889-1.3258 1.1332-4.733.1889-3.596 2.2702 1.1332 2.0851 3.596 3.0332 3.7849 3.7887.1889.7555-2.0851 1.7074-3.9776 1.5185-1.8962-.1889-2.4628 3.2184-2.0813 3.4072.3777.1889-.5704.1889-1.7074.7555-1.1332.5704-.9443 1.7111-2.0813 1.7111-1.1408 0-.5704-1.1407-2.4667-.5703-1.8924.5666-.9443.3777-1.322 1.5147-.3816 1.137-.5704 1.8925-2.8444 1.1332-2.274-.7555-.5666-1.511-2.4629-1.511-1.8962 0-2.8406-.5666-2.274.9444.5667 1.5185 1.5148 2.4666 1.137 3.411-.3777.948-2.274.7554-2.274.7554l-1.322 2.2778h-1.3297s-.7554-.5666-.5666 1.1332c.189 1.7074-1.1407 2.8444-2.085 2.4666-.9482-.3777-2.274-.5703-2.6518.9444-.3777 1.5185 0 3.411-1.137 3.7887-1.137.3815-1.7074 1.3296-.7555 2.0851.9444.7555 2.6518-.1889 1.6999.9481-.9444 1.1332-1.1332 1.137-2.4591 2.0851-1.3297.9444 1.511 2.4591 0 5.3035-1.5185 2.8406-1.5147 1.5147-1.5147 3.9776 0 2.4628.5666 2.4628-.7593 4.1664l-2.1682 1.5865c-.4873.4155-1.1899.6913-2.2098 1.2277-1.4845.7781-1.9076 1.4845-2.7575 2.4024-.8499.9217-.4268 1.7678-.2153 3.6074.2153 1.8396.9217 3.0408 2.6178 5.515 1.6998 2.478 1.0614 2.2664 1.0614 3.5394 0 1.273-1.2012 1.7678-2.1229 2.3344-.9179.5666-.2078.8461.1435 1.1332.3551.2795 2.6178.5666 3.5357 1.273.9217.7063-.2116 2.5421-.1398 4.1702.068 1.6243-.1435 3.324-.4986 3.6791-.3513.3514-1.4127.2116-2.614.85-1.2011.6346-2.1228.491-3.0407 1.6242-.9217 1.1332.7781.9897 1.9075 1.0577 1.1332.0755.7782.0755 1.4166 1.2088.6345 1.1294 1.0576 1.4807 2.3306 2.4742 1.2767.9858-.2078.8499-.8461 1.8395-.6384.9897-1.4845 1.696-1.5563 2.8973-.0718 1.205-.355 1.4127-.9897 2.4742-.6384 1.0614-1.4845.355-1.6998 1.0614-.2115.7064.9217 1.205 1.9113.7101.9897-.4948 2.191-.5666 2.8293-.355.6346.2115.6384.7064.9897 1.9793.355 1.273 3.4676 3.5394 4.6688 3.5394s2.4024.8462 3.1806 1.4845c.7781.6346.9934 1.4128-.1398 2.123-1.1332.7063-1.341 2.6139-1.6243 3.8868-.2833 1.273-.9216 1.8396-2.6177 2.969-1.6998 1.1333-2.9728-1.2691-3.8227-1.9075-.8461-.6384-2.8293-1.2012-3.324-.2833-.4912.9217-1.9794 1.3447-2.614 2.5497-.6346 1.2012-.1436 2.2589-.6384 2.5422-.491.2833-1.8358.0718-1.7678.8499.0717.7781-.2116 2.1229-.918 3.3959-.7063 1.273-.1397 1.2012.2834 2.901.423 1.696-.2153 3.1806-1.1332 3.9587-.8877.7517-1.511.7252-2.3193 1.4203.2455.4835.6572.9821 1.341 1.4467 2.6479 1.8056 4.9332.8424 7.1014 1.5639 2.1682.7214 3.0106.7214 3.4903 1.5638.4797.8423.3626.8423.9632 1.322.6044.4836.3627.121.7253 1.5677.3588 1.443-.1209 2.4062 1.56 3.732 1.6885 1.3221 1.3259.3589 2.41 1.2012 1.0841.8424 1.322 1.6848.4797 1.8056-.8423.1209-2.1644-.117-2.1644.9633 0 1.084-.1209 2.8896 1.2012 2.1682 1.322-.7215 1.4467-1.443 2.1682-1.6847.7215-.2418 2.1682-1.4468 1.8056-.2418-.3589 1.205-.8424 1.5638.6044 1.5638 1.443 0 2.1644-.8423 2.2815 0 .1209.8424-1.0803.9633-1.4392 2.0474-.3626 1.084-.3626.9632.238 1.6847.6044.7215 1.443.8386 1.322 2.2853-.117 1.443-.8385 1.6847.121 3.1314.967 1.443 1.4467 3.4904 2.5308 2.2854 1.0803-1.2012.8386-2.0436 1.9265-1.6847 1.0803.3626 2.6441.2417 4.9332 1.2087 2.0436.8575 1.987 1.4165 3.5848.5817a.6233.6233 0 0 1-.0643-.1775l-.102-.1889c-.2644-.4306-.4419-2.5421-.7894-3.1843l2.1569-2.2929.5326-2.8406s-1.035-2.3344.8121-5.7038c.6837-1.2465 1.851-.2795 2.1531-.5968.695-.7253 2.3798-1.9718 5.5717-3.6339 2.4062-1.2503 4.0795-5.4507 4.9861-5.904 2.1153-1.0577-.7253-1.0388-1.4127-2.5875.5439-.8612 1.2012-1.0803 1.322-1.273-.8688-.4382-1.4354-.8688-.661-.51.5855.272.7366.3854.6573.51.7932.4042 1.8395.816 2.3684.6384 2.5308.1322 1.579-2.3609 2.2702-2.2022 1.1936.2757 2.0511-3.5583 2.8104-3.7585 1.5902-.4193 1.424-2.3722 1.7036-3.5659.3135-1.3145-3.4186-3.3203-2.818-3.188 1.715.3701.6384-6.1194 1.4354-6.2554.9557-.1624-1.8207-1.4656-1.6431-1.9076.3135-.7819-3.3921-1.9944-3.2448-3.0634.2493-1.7565.3437-3.4563.5288-3.6301.4458-.423-1.7376-.9783-1.3145-1.56.6195-.8575 1.0652-1.783.899-2.4969-.3513-1.511-4.174-1.7867-4.495-2.2098-.1965-.253-3.0484-1.375-2.3836-2.4477.4873-.7857-.3777-2.0474.136-2.8104.3966-.5968 2.1078-.7932 2.8217-.865.6082-.0567 1.477-.7441 2.0927-.2493.9519.763 6.0702.8461 7.2865 1.6885.1058.0718 1.9 3.2599 2.3798 4.0493.4533.7366 3.358-.9443 4.0229-.2153.627.68 2.6366.2267 2.206.6762-.831.8612 1.8509 1.0463 2.6706 1.3183.7403.2417 2.1909-.763 2.4628-.816.5969-.1208-.8385-1.4656-.593-1.9264.6233-1.1936.0604-3.3165.4646-3.3316.9557-.0265-4.7444.0604-4.6764-.204.1624-.6044-4.0342-1.0426-4.412-2.546-.4344-1.7225-.1435-3.0748-.3097-3.9549-.4042-2.0927-1.5336-5.0088-.7177-4.2987 1.5752 1.375-.8688-2.1908-.0227-2.1682.9217.0265-.2266-2.1417-.374-3.4185-.1888-1.6696-.744-3.6867-.253-4.072 1.715-1.3372-2.0511-4.8842-.1058-5.6019 1.8132-.6686 2.9124 1.3788 4.0418.8688 1.0123-.457-1.0199-3.494-.6875-3.018.5553.8045.2191-1.9152.7668-1.4242 1.579 1.4128 1.6092-1.4807 1.9076-3.2334.2984-1.7376 2.0322-4.5442 3.2863-4.1287.8688.2871 2.1985-.0415 2.9804.2002 2.138.661 2.153-1.8811 3.8416-.9972 1.0576.5515 1.594 1.6998 2.274 2.1531.7743.5137 1.8433.34 1.8509.6044.0302 1.749 1.186-3.8265 2.2513-4.7142.612-.5024 1.1899-.1775 1.5676-.5892.748-.8197-.0113-2.055.7857-2.5762 1.1559-.763 2.3949.5817 2.7688-.1889.3022-.6308-1.4505-1.5978-2.3722-2.0398 1.2579.17-.4608-4.3288.797-5.2505.8688-.6309 1.3599-1.156 2.2854-4.3591.3324-1.1597 1.7489-.8915 2.2437-.6913 1.02.4155 1.7754-2.187 2.0285-2.1267 3.6112.8462-1.8585-4.7972-.1511-5.3563 1.118-.3664 1.1634.6648 2.0322.17.4722-.2682-.7253-.2908-.321-.6233.642-.5288-.5704-2.493.0301-2.969 2.3458-1.8509 3.5923-2.7461 4.9937-2.5913 2.5007.2796 4.9862-2.3608 5.6586-2.4742 1.5865-.2644-.087-4.9634.1775-5.4923.253-.5099 1.5676-.6421 1.6696-.6497-.1511.0114-.2757.034-.3437 0-.2267-.1133-.6724 0-.8235-.2644-.1511-.2568-.1133-.9292.34-1.6394.4457-.7101 2.3495-.899 3.324-1.0123.9708-.1133 2.2023-1.5676 1.7527-2.2022-.4495-.6346-4.106.1133-4.9672.5968-.8575.4873-2.614-.2644-3.2486-.559-.6345-.3022-1.084-1.3448-.7856-1.7187.3021-.374 3.2107-.933 4.223-1.3448 1.0086-.408 1.9794-1.3447 1.9794-2.8368 0-1.4958 1.1219-1.7565 2.24-2.6517 1.1181-.8953.4117-1.866.4835-2.6517.0755-.7857.34-.3022 1.1219-1.1937.7819-.8952-.1133-.8612-.374-1.273-.2644-.4117-1.307-.2644-2.9463-.2644-1.647 0-2.8029.1889-3.0295.1133-.2266-.0717-1.3825-2.1644-2.2022-2.8708-.8197-.7139-1.3825-3.698-1.1974-5.0806.1888-1.3825.1888-2.1682-.6724-2.9878-.8575-.8235-.6308-1.122-.2606-2.055.3777-.933 1.3447-1.7942 1.7564-3.2485.4118-1.458-1.0085-2.614-1.5298-3.5507-.525-.933-1.7187-.1813-2.0927.5666-.374.7441-1.2692 1.2654-2.58.967-1.3069-.3022-1.1936-1.1219-1.9377-2.055-.748-.933-1.5676-2.7612-2.4289-4.4421-.8574-1.681-.559-.5288-1.492-1.273-.9368-.7441-3.2901-3.5092-4.5971-5.1523-.8801-1.1068-2.1153-1.7112-2.9388-2.0625a163.2432 163.2432 0 0 0-4.5102-.0642ZM419.608 683.7576l.0945.1624a16.545 16.545 0 0 0 .5968-.3286c.0378-.0189.102-.0907.1398-.1209a2.1531 2.1531 0 0 1-.7668.204c-.0567-.0113-.068.0264-.0643.0831Z"
          style="font-variation-settings: normal; vector-effect: none; fill: rgb(204, 51, 51); fill-opacity: 1; stroke: rgb(0, 0, 0); stroke-width: 0.99943; stroke-linecap: butt; stroke-linejoin: miter; stroke-miterlimit: 4; stroke-dasharray: none; stroke-dashoffset: 0; stroke-opacity: 1; stop-color: rgb(0, 0, 0); cursor: crosshair; pointer-events: auto;"
          data-originalStrokeWidth="0.99943" fill="#cc3333" stroke="#000" pointer-events="auto"
          stroke-width="0.99943" /><text id="Chhattisgarh_label" x="-94.5711" y="719.7189"
          style="font-size: 39.602px; stroke-width: 3.30017; display: none;" transform="rotate(-45)">
          <tspan id="Chhattisgarh_tspan" x="-94.5711" y="719.7189" dy="0"
            style="font-style:normal;font-weight:400;font-size:16.5008px;font-family:Arial;text-align:center;text-anchor:middle;fill:#6a0707;stroke-width:3.30017"
            fill="#6a0707">Chhattisgarh</tspan>
        </text>
      </g>
    </svg>
  </g>
  <text id="credit-text-svg" font-family="Century Gothic,Segoe UI,Lucida Grande" font-size="8" font-weight="bold"
    fill="#000">
    <tspan id="credit-tspan-svg" x="57.333333333333336" y="1012.5853204116821" dy="0">
      Created with mapchart.net
    </tspan>
  </text>
</svg>