<?xml version="1.0" standalone="no"?>
<svg xmlns="http://www.w3.org/2000/svg" id="wrapper" viewBox="0 0 860 1021.361" preserveAspectRatio="xMinYMin"
  height="1021.361" width="860" style="background-color: transparent">
  <g id="map-group">
    <svg xmlns="http://www.w3.org/2000/svg" id="map" width="860" height="1021.361" version="1.1"
      viewBox="0 0 860 1021.361" preserveAspectRatio="xMinYMin">
      <g id="g1031">
        <path id="Karnataka" fill="#cc3333" fill-opacity="1" stroke="#000" stroke-dasharray="none" stroke-dashoffset="0"
          stroke-linecap="butt" stroke-linejoin="miter" stroke-miterlimit="4" stroke-opacity="1" stroke-width="1.001"
          d="M295.7403 662.744c-.2947.019-.612.3513-.9973.4571-.7819.2115-3.1163 4.0342-4.1778 6.0136-1.0576 1.9793-1.4127 1.4845-4.3137 2.1909-2.8973.7063-2.4742 1.9113-2.8293 2.6177-.3513.7101-1.1332 1.8396-.9179 2.6177.2115.7782.3513 2.0511.1398 3.1088-.2116 1.0614-1.696.1435-3.3921.2153-1.6998.0718-.355.2795-.7102 2.0511-.3513 1.7678-.7743 2.7575-1.9075 3.819-1.1332 1.0614-.9217-.4949-.9897-1.5563-.0718-1.0577-.5666-1.4845-.9897-.7782-.4268.7064-2.0549 1.2012-2.1909.4911-.1435-.7026-.1473-1.4807-.1473-1.4807s-.6346-.7782-.9179.423c-.2833 1.205-2.6895 3.3241-3.1125 3.8227-.4231.4911-1.6999 1.1975-2.1191 2.4025-.4269 1.2012.423 3.4676 2.6177 3.8906 2.1909.4269.1397 1.2013-.2833 2.3345-.4269 1.1332-2.478.2795-3.5394-.1436-1.0577-.423-2.0512-.423-3.6074.2833-1.5525.7064-2.546-.068-3.3241-.5666-.7782-.491-1.2692-.8461-3.3921-.423-2.1229.423-3.1126.1397-5.0957-.3551-1.9793-.491-2.8972-2.0511-4.4535-2.6857-1.5563-.6384-1.3448.355-1.1332 2.3344.2115 1.9793 1.0652 1.1332 1.0652 3.1843s-.5666 1.0577-.5666 2.2589c0 1.205 1.1332 1.9831 1.4845 3.9625.355 1.9793-1.4883 1.6998-2.1909 1.983-.7101.2834-7.7814-.0755-8.9864.7065-1.2012.7781-1.4845 1.7678-4.174 2.546-2.6857.7743-3.1805-1.0615-4.9483-2.123-1.7679-1.0614-2.2665-1.1332-2.6178.4949-.355 1.6242-.491 4.3855-1.0576 4.5253-.5666.1435-2.9728.1397-4.6727.7063-1.696.5666-1.9075 1.3448-2.6819 2.7575-.782 1.4165-2.6895 1.0615-3.6112.6384-.9179-.423-2.051-.7064-3.1125.355-1.0577 1.0577-2.8973.6347-4.3818.5667-1.4883-.0756-2.1266 1.2012-1.3447 2.4024.7781 1.205 1.8396 2.1946 1.9075 3.1125.0718.9217 1.1333 3.0446 2.478 3.4677 1.341.423 1.4128 2.3344 1.2012 3.8907-.2115 1.5525-1.56 1.341-1.628 2.1909-.0718.8499.7063 1.628.2833 3.6073-.4231 1.9794-1.9114 3.0408-2.546 3.6074-.6384.5667-3.3958 1.1333-4.597.6346-1.2013-.491-1.4166.5667-2.3345 1.6243-.4608.5364-.763 1.103-1.0879 1.6356.0038.0265 0 .0642.0114.0907.6346 2.1229 1.6998.423 2.3344.102.6346-.3173 1.171-.102 1.6998-.102.5288 0 1.4845 2.7575 2.2287 4.2458.7403 1.4845 0 1.4845-.1058 2.017-.1058.529-.5288.8462-1.3825 2.0172-.8461 1.1672.1057.7404.7441 1.9114.6346 1.1672 0 1.4845-.5288 2.2286-.5326.7404-.321.423-.6422 1.3788-.3173.9556-.102 4.14-.102 4.986 0 .8538 0 1.9152-.1057 2.7651-.1058.85-1.171 1.9114-1.171 1.9114s-1.3787.2115-1.9114.8499c-.5288.6346.1058 1.1672-.5288 2.2287-.6384 1.0576-1.5903.6345-1.4845 1.4845.1058.8499.9557.9556 2.1229 1.3825 1.171.423 2.4402 2.0171 2.867 2.9728.423.9556-1.0652 1.4845-1.0652 2.8632 0 1.3826.321.4269 2.0209 1.0653 1.6998.6383 1.6998 5.413 2.2286 6.9012.5289 1.4845 1.273 1.1672.9557 2.1191-.321.9595-.9557 2.2287.3173 4.2496 1.2768 2.0171 2.9728 5.413 2.7613 6.9013-.2116 1.4845 2.7575 5.3072 2.0171 7.007-.7441 1.6998.1058 2.969.1058 4.0304 0 1.0615 1.3787 10.301 1.3787 12.4276 0 2.1191 3.6112 8.4916 3.6112 8.4916s1.8018 1.171 2.4402 1.171c.6384 0 4.2457-.9633 5.0994-.8537.8462.1057 1.1672 1.9113 1.696 2.6555.529.7441 1.0615.423 2.123.8499 1.0614.423 1.0614.7404 1.6998 1.273.6346.5288.3173.6383.7404 1.1672.4268.5288.9594-.1058 1.4882-.5289.5289-.4268 1.0615.3173 1.171.952.102.6383 0 1.3824.7404 2.2286.7441.8499 1.4883.2153 1.6998.9557.2115.7441.5288 2.7612.5288 4.3553 0 1.5903 1.0653.7441 2.444 1.8056 1.3787 1.0576 2.1229 2.4402 2.8633 3.3958.7441.9557 1.0614 1.6998 2.7612 2.9728 1.6998 1.273 2.8708.3173 4.3516.7404 1.4882.4268.6383 1.171.6383 2.6555s1.5941.8499 2.7575 1.2767c1.171.4231 3.1881 0 4.1438-.6421.9557-.6346 2.4402.5326 2.6517 2.0209.2153 1.4845.748 2.7575 2.765 2.6555 2.0172-.1058 3.1844 2.2286 3.9285 3.5016.7404 1.273 1.0577 2.0171 2.0134 2.1229.9557.1058 1.0614-.5288 1.594-1.2767.5289-.7404 1.273-.2078 2.123-.102.8498.1057 3.29 1.4845 3.7169 1.9113.423.423 3.6074.5289 5.3072.952 1.6998.4268.6346-.1058.9557-1.5904.3173-1.4845.4268-2.1229 1.4882-3.3958 1.0577-1.273 3.819-.85 4.6689-.85.8499 0 1.6998 1.171 2.3344.7404.6422-.423 4.7784-1.8018 6.4782-1.4845 1.6998.3173 2.867 1.171 3.3997.85.5288-.3211.9519-1.273 1.8018-3.1844.8499-1.9114 1.2767-1.273 2.3382-1.273 1.0576 0 1.696-.4268 2.6517-.9556a41.4567 41.4567 0 0 1 1.171-.6422s.423-.8461 1.1672-1.375c.7404-.5326 1.5865-3.8227 1.4845-4.2495-.1096-.423-1.171-.1058-3.9285-.3173-2.7575-.2116-4.14-.3211-4.2495-1.3825-.102-1.0577 1.0614-1.8019 2.7612-3.0748 1.6999-1.2768 1.9114-3.0824 1.594-4.1438-.3172-1.0577-1.4844-1.273-1.4844-2.8633 0-1.594 1.0576-2.9765 2.3344-3.0823 1.273-.1058 1.171 0 2.1229-.6346.9557-.6384 1.0614-1.8056 2.3382-2.2287 1.273-.4268 1.0576-1.6998 1.3787-2.2286.3173-.5326 1.0577-.7442 3.1844-.6384 2.1228.1058 3.1843 1.0614 4.0342 1.1672.8499.1058 3.717.9557 4.14.7442.423-.2116 1.8056-1.9152 2.1229-2.7613.321-.85.9557-1.171 1.171-1.4883.2077-.3173 1.5865-.7404 3.5016-1.5903 1.9114-.8499 1.8056-1.9113 2.4402-3.1843.6384-1.273.5326-1.9114.7441-2.8708.2153-.9519.4231-1.9076.9557-2.546.5288-.6346-.8499-1.5902-.8499-1.5902s-.85 0-2.6555.102c-1.8056.1095-2.0171-.952-2.546-2.0134-.5288-1.0614-.2153-3.0786-.2153-4.14s-.4192-2.3382-.4192-2.3382-1.171-.1058-2.6556 0c-1.4882.1058-1.594.2153-3.0823-.8499-1.4845-1.0577-2.4402-3.0748-2.2286-4.0305.2153-.9556.7441-1.3825.6421-2.444-.1095-1.0614-1.2767-1.171-2.342-1.273-1.0576-.1057-1.8055.9558-3.1843.7442-1.3787-.2115-1.696-.5326-2.4402-1.4882-.7403-.9557-.9557-1.5903-.9557-1.5903s-.9556 1.8056-1.8055 3.0785c-.85 1.273-.6346.7404-1.0577 1.2692-.4269.5326 0 1.171-1.0652 1.171-1.0577 0-1.8056.1058-2.3345.3173-.5288.2153-1.9113.3211-2.6554 1.3825-.7404 1.0615-2.3345.2116-2.4402-.4268-.1058-.6346-.7442-1.6998-1.1672-1.9076-.4231-.2153-3.1844-1.6998-4.2458-1.6998-1.0615 0-3.1881-1.4883-3.717-2.3382-.5288-.8461-1.8055-.3173-1.9113.321-.1058.6347.6384.8462.9557 2.3345.3173 1.4883-.3173 1.3788-.4231 1.8056-.1095.423-4.2495 0-4.2495 0s-.4269-1.3825-.4269-2.1267c0-.7403.85-1.6998 1.3825-2.4402.5289-.7441-.7403-2.1228-.7403-2.1228s-1.171-.85-1.3826-2.867c-.2115-2.0172-1.4845-2.9729-1.273-3.5017.2116-.5288 1.3788.6346 2.546 1.3787 1.1672.7442 1.9114 1.273 3.6112 3.2901 1.6998 2.021 6.5802.7442 7.5359 2.444.9594 1.6998 2.5497 1.8056 2.5497.9557 0-.85-.4269-2.2287-.85-2.8708-.4268-.6309-1.9113-2.3307-1.9113-3.1806 0-.8499 1.0615-1.0614 2.123-.8499 1.0614.2115 1.594.6384 2.2286.423.6421-.2115.321-.5288 1.0652-1.6997.7403-1.1635-.6422-1.9076-1.2768-2.6518-.6346-.7441-1.3787-1.273-2.2286-1.4845-.85-.2115-.7442.7442-.85 1.5903-.1057.85-1.0614 1.0614-1.8055.7441-.7404-.3173-2.7575-1.4882-3.7132-2.546-.9557-1.0651-2.2286 0-2.2286.6347 0 .6384-.2153 2.867-.2153 2.867s-2.6555-.7441-4.0343-.9557c-1.3787-.2115-3.0786-2.9728-2.9728-4.14.1058-1.171 1.6998-1.4883 1.6998-1.4883s-.4268-1.0614-1.594-1.171c-1.1672-.102-2.546-1.1634-3.5016-2.0133-.9557-.8499-.1058-2.1229 0-3.29.1057-1.171.5288-3.7133 1.9113-4.4574 1.3788-.7441.423-1.171.85-2.444.423-1.273-1.2768-1.9113-2.3383-2.6554-1.0614-.7442-1.171-1.273-1.171-2.1192 0-.8499 1.171-1.3825 2.5535-1.2767 1.3788.1057 2.4402.7441 3.7132 1.171 1.2768.4193 3.717-.6422 5.3072-.748 1.594-.1057.7442-5.3072.2153-5.6282-.5288-.3173-1.594-1.5903-2.017-3.6074-.4232-2.0172-1.7-1.1673-3.2902-2.4402-1.594-1.273.2116-.85 1.3788-.9557 1.171-.1058 2.867-3.6112 3.6111-4.4573.7404-.85.1058-1.0652-.321-1.8094-.4231-.7403-.3173-.7403-.2116-1.9076.1058-1.171-1.5903-1.915-1.9113-2.9765-.3173-1.0577.9557-1.6998 1.6998-2.6517.7441-.9557 3.6112-.4269 4.2458-.7442.6383-.3173 1.273.4269 1.6998 1.594.423 1.171 1.4845.6347 2.6517 1.0577 1.171.4269 3.1843-.9519 4.0342-1.5865.85-.6383.4269-1.9113.4269-4.1437 0-2.2287.6384-3.3997.7441-4.3516.1058-.9557 2.123-1.2767 2.7575-1.6998.6384-.4268-.1058-.8461-1.4845-1.0577-1.3787-.2153-1.6998-1.2767-2.444-1.3825-.7441-.1058-1.8018.85-2.1228.6384-.3173-.2153-2.9728-1.3825-3.5017-1.8056-.5326-.423.2116-1.6998 1.3788-2.8708 1.171-1.1635 3.1843-2.6517 3.5054-3.0748.3173-.423-.5289-1.171-.1058-2.9728.423-1.8056-.321-1.9113-.6421-3.1843-.3136-1.2768.9594-1.9152 1.5978-2.444.6346-.5288-.5326-1.3787-.7442-2.1229-.2115-.7441.85-1.8056.9557-2.546.1058-.7478-.4268-1.171-1.2767-1.3824-.8462-.2116-1.6999-1.3788-.9557-2.2287a23.5822 23.5822 0 0 0 1.8056-2.3382c.4268-.6384 2.2286-1.9076 2.9728-2.8633.7441-.9556 1.6998-.9556 2.5497-1.171.85-.2115 3.0786-3.3996 2.0171-3.29-1.0614.1057-3.8227-.5289-4.2495-1.3788-.423-.8499 0 0-2.4402-.5288-2.444-.5326-1.273-1.6998-1.0615-2.8708.2116-1.1672 1.273-1.1672 2.5498-1.1672 1.273 0 .9556-1.6998 2.1229-2.3344 1.171-.6346.7403-2.5498.7403-3.8228 0-1.273-.1057-2.7612-.8499-4.14-.7403-1.3787-.6346-2.017-.5288-3.5054.1058-1.4845 0-2.3344-.2115-2.969-.2154-.6384-1.273-1.0614-1.273-1.0614l-.627-.3627c-.1512.2871-.2947.5855-.4571.85-1.1333 1.8395-1.1333 1.1332-2.3345 1.1332-1.2012 0-1.7678-2.478-2.3344-4.8124-.2795-1.1672-.5477-1.4656-.8385-1.4468Z"
          opacity="1" stop-color="#000" stop-opacity="1"
          style="font-variation-settings: normal; fill: rgb(204, 51, 51); stroke: rgb(0, 0, 0); stroke-width: 1.001;"
          vector-effect="none" data-originalStrokeWidth="1.001" /><text id="Karnataka_label" x="736.4413" y="387.945"
          style="font-size: 45.3285px; stroke-width: 3.77738; display: none;" transform="rotate(45)">
          <tspan id="Karnataka_tspan" x="736.4413" y="387.945" dy="0"
            style="font-style:normal;font-weight:400;font-size:18.8869px;font-family:Arial;text-align:center;text-anchor:middle;fill:#6a0707;stroke-width:3.77738"
            fill="#6a0707">Karnataka</tspan>
        </text>
      </g>
    </svg>
  </g>
  <text id="credit-text-svg" font-family="Century Gothic,Segoe UI,Lucida Grande" font-size="8" font-weight="bold"
    fill="#000">
    <tspan id="credit-tspan-svg" x="57.333333333333336" y="1012.5853204116821" dy="0">
      Created with mapchart.net
    </tspan>
  </text>
</svg>