<?xml version="1.0" standalone="no"?>
<svg xmlns="http://www.w3.org/2000/svg" id="wrapper" viewBox="0 0 860 1021.361" preserveAspectRatio="xMinYMin"
  height="1021.361" width="860" style="background-color: transparent">
  <g id="map-group">
    <svg xmlns="http://www.w3.org/2000/svg" id="map" width="860" height="1021.361" version="1.1"
      viewBox="0 0 860 1021.361" preserveAspectRatio="xMinYMin">
      <g id="g999">
        <path id="Kerala" fill="#cc3333" fill-opacity="1" stroke="#000" stroke-dasharray="none" stroke-dashoffset="0"
          stroke-linecap="butt" stroke-linejoin="miter" stroke-miterlimit="4" stroke-opacity="1" stroke-width="1.001"
          d="m213.9713 830.656-.6383.3967s2.425 4.0871 2.5686 4.276c.1397.1889 4.6084 12.3596 5.2279 13.168.6157.8083 4.3704 5.3676 5.3714 5.8926.9972.5213 2.6593 1.3297 3.9398 3.09 1.2843 1.7564 4.801 5.3223 5.039 5.5602.238.238.6649 1.7603 1.2352 3.2297.5704 1.4732 1.3334 4.6575 1.3334 4.6575s3.3732 4.8464 3.8945 6.3196c.525 1.4731 1.662 3.4751 2.1418 4.3288.476.8537 1.424 2.852 1.186 4.2307-.2379 1.375-.3323 2.561.189 3.275.525.714.287 2.4742.9519 4.1362.6648 1.662 1.662 4.8955 2.2815 5.8474.6195.9481 2.8028 4.8464 3.1352 5.6056.3324.7593 1.239.6649 2.0436.8575.8083.1889 2.0926 2.0889 2.0926 2.6593 0 .5666-.2833 2.0926-1.2352 1.7602-.9518-.3362-1.424-.5704-1.7111-.3362-.2833.238.2833 4.3742 1.4732 6.8484 1.1899 2.4704 2.2815 5.7945 2.3268 5.938.0491.1436.4307 6.3687.9066 7.9363.4722 1.5714.661 4.1363 1.5639 5.1335.9065.9972 1.4731 1.851 1.239 2.8972-.238 1.0464-.7593 2.8066.6194 4.4196 1.3788 1.6205 2.8482 3.5658 3.2788 4.4195.4268.8575-.0491 2.901 1.4732 4.3742 1.5185 1.4732 5.0352 4.1816 5.224 4.2307.189.049 4.9447 4.752 6.6105 5.039 1.662.287 2.1833.287 2.5157 1.1408.3324.8537-.476 2.0398.3324 2.8519.8084.8046 4.1363 4.3704 5.228 4.6575 1.0954.2833 2.6139-.287 2.6139-.287s.1888-.102.4646-.2645c-.3702.0869-.6724.1926-.7215.1624-.1284-.0755-.6157-1.4845-.6157-2.0209 0-.5363 1.254-2.5081 1.8131-3.324a5.4017 5.4017 0 0 0 .899-2.7424c0-.7668-.9972-2.1758-1.3825-2.7122-.3853-.5364-.8952-1.254-.5855-1.9718.3022-.7177.7668-.7932 1.511-1.2276.7404-.4344.661-2.1494.5855-3.1466-.0756-1.001-1.0766-1.307-1.662-2.0247-.5931-.7177-.7706-1.8924-.4911-2.8141.2833-.9217.9481-.8688 1.9491-1.613.9972-.7403 1.2276-1.4316 1.2768-2.3533.0528-.9216.491-4.174.7932-4.9143.3098-.7442 1.2843-1.2314 2.357-2.0247 1.0766-.7933.7178-4.0154.6913-4.8086-.0264-.7933-.3097-.8197-.6648-1.3825-.3588-.5666-1.8433-1.662-2.255-1.662-.408 0-.8197.3777-1.5866 1.3258-.7668.9481-1.6129.5401-2.0473.491-.4344-.0528-.2795-1.3598-.102-1.8962.1813-.5364.6913-1.3296 1.409-2.2287.7177-.8914.7441-2.07.8197-2.3268.0755-.2569-.3362-1.0992-.5666-1.6356-.2267-.5402.1548-1.4619.5137-2.3571.3588-.899.6157-3.3279.4608-3.9927-.151-.6648-.8423-1.613-1.254-2.6102-.408-.9972.7932-.9707 1.1785-1.3296.3815-.3589 1.0992-1.3825 1.3032-1.6658.2077-.2833-.5893-1.5639-1.1521-1.9454-.5629-.3853-1.4581-.6648-2.0965-.8688-.6421-.2077-1.1785.4344-1.7942.8462-.612.408-3.2486 1.3523-3.9663 2.017-.7177.6649-1.5865.5403-1.8433.3854-.2569-.1511-.5629-.5364-1.02-1.0992-.4645-.5667-1.307-.1511-2.2815-1.6848-.9708-1.5336.0491-2.1304.3853-3.154.3324-1.02.0756-2.5574.102-3.377.0265-.816-1.3825-2.6102-1.3296-3.0975.049-.4873 1.1483-.8461 1.5865-1.0501.4344-.204 1.56-1.4052 1.8131-1.715.2606-.3021-.151-2.07-.3815-2.5837-.2266-.51-.7177-.6912-1.5865-1.05-.8688-.359-3.4525-1.5601-4.0682-1.8434-.612-.2796-.8953-.7933-1.1521-1.2768-.2569-.4873-.102-.8688.2266-1.409.3362-.5401 1.0766-1.001 1.3599-1.307.2795-.3059-.0265-1.662-.2267-2.712-.2077-1.0502-.5401-.6649-.797-.8689-.2569-.2077-1.5865-1.0765-2.0738-1.4354-.4835-.3588-2.0738-1.968-2.3533-2.7121-.2833-.7404.204-1.4846-.102-2.0738-.306-.5893-1.7414-1.0766-2.2286-1.3825-.4873-.306-1.1521-.51-1.205-.8688-.0491-.3589-1.5336-.9444-1.919-1.56-.3814-.6158-.2266-.306-.9443-1.0238-.7177-.7177-.204-.9745-.102-1.6394a8.2347 8.2347 0 0 0 .0491-2.1266 6.5273 6.5273 0 0 0-.3966-1.696l-.0755-.1285c-.7404-1.273-1.9076-3.6074-3.9285-3.5016-2.0171.1058-2.546-1.171-2.7575-2.6555-.2153-1.4883-1.6998-2.6555-2.6555-2.0171-.9557.6346-2.9728 1.0576-4.14.6384-1.171-.4269-2.7613.2077-2.7613-1.2768s.85-2.2287-.6383-2.6555c-1.4845-.423-2.6555.5326-4.3516-.7404-1.6998-1.273-2.017-2.017-2.7575-2.9728-.7441-.9556-1.4882-2.3344-2.8708-3.3996-1.3787-1.0577-2.4402-.2115-2.4402-1.8018 0-1.594-.3173-3.6112-.5288-4.3553-.2115-.7404-.9557-.102-1.6998-.952-.7441-.8498-.6384-1.594-.7441-2.2286-.1058-.6421-.6346-1.3825-1.1673-.9594-.5288.4268-1.0614 1.0614-1.4882.5288-.4231-.5288-.1058-.6346-.7404-1.1634-.6384-.5289-.6384-.85-1.6998-1.2768-1.0615-.423-1.5903-.102-2.123-.85-.5288-.7403-.8498-2.5459-1.6997-2.6516-.85-.1096-4.4573.8499-5.0995.8499-.6346 0-2.4364-1.171-2.4364-1.171Zm49.4837 35.9267c.0604.0982.117.17.1738.2569-.0567-.0869-.1134-.1587-.17-.2569Zm3.0597.0265c-.2191.3173-.374.6043-.5478.8234.1776-.219.3287-.5061.5478-.8234Zm-2.6178.6157.068.0755Zm.2154.2266.0982.0756c-.0303-.0303-.0643-.0491-.0982-.0756Zm1.8018.0567c-.034.0377-.068.0642-.102.0944l.0982-.0944Zm-1.5563.1246c.0378.0227.0793.0378.1209.053Zm-21.565 3.6037c.3097-.0378.5968.0075.778.253a.8832.8832 0 0 0 .2645.2078l.3588.1926h.0038c.2418.136.4495.2796.4193.4609-.0113.0869-.0869.185-.1813.2833-.1889.1889-.476.3928-.5855.5137-.0264.0302-.0416.0567-.0416.0756 0 .0188.0152.034.0491.0377.6346.1209.9822.2909 1.1182.4949v.0037a.3777.3777 0 0 1 .0642.155.4004.4004 0 0 1-.0114.1661.6422.6422 0 0 1-.0755.1738 1.1181 1.1181 0 0 1-.1322.1737.408.408 0 0 1-.1889.1134c-.2077.0642-.4797-.0151-.7479-.0756-.3626-.0755-.7177-.117-.9368.2644-.219.3853-.2266.8008-.2795 1.0426-.0491.2417-.1511.306-.5477-.0076-.5024-.3966-.3513-.6648-.4835-.9443a.6422.6422 0 0 0-.1247-.1738 1.9491 1.9491 0 0 0-.627-.3853c-1.2995-.5666-.3702-1.1332-.3702-1.1332l1.2994-.491s-.0491-.2078-.0869-.4382c-.0378-.2267-.0642-.4722-.0151-.5402a1.6432 1.6432 0 0 1 .3626-.2002 3.3203 3.3203 0 0 1 .34-.1322 2.1531 2.1531 0 0 1 .3777-.0869Z"
          opacity="1" stop-color="#000" stop-opacity="1"
          style="font-variation-settings: normal; fill: rgb(204, 51, 51); stroke: rgb(0, 0, 0); stroke-width: 1.001;"
          vector-effect="none" data-originalStrokeWidth="1.001" /><text id="Kerala_label" x="225.9305" y="937.8695"
          style="font-size: 45.3285px; stroke-width: 3.77738; display: none;">
          <tspan id="Kerala_tspan" x="225.9305" y="937.8695" dy="0"
            style="font-style:normal;font-weight:400;font-size:18.8869px;font-family:Arial;text-align:center;text-anchor:middle;fill:#6a0707;stroke-width:3.77738"
            fill="#6a0707">Kerala</tspan>
        </text>
      </g>
    </svg>
  </g>
  <text id="credit-text-svg" font-family="Century Gothic,Segoe UI,Lucida Grande" font-size="8" font-weight="bold"
    fill="#000">
    <tspan id="credit-tspan-svg" x="57.333333333333336" y="1012.5853204116821" dy="0">
      Created with mapchart.net
    </tspan>
  </text>
</svg>