<?xml version="1.0" standalone="no"?>
<svg xmlns="http://www.w3.org/2000/svg" id="wrapper" viewBox="0 0 860 1021.361" preserveAspectRatio="xMinYMin"
  height="1021.361" width="860" style="background-color: transparent">
  <g id="map-group">
    <svg xmlns="http://www.w3.org/2000/svg" id="map" width="860" height="1021.361" version="1.1"
      viewBox="0 0 860 1021.361" preserveAspectRatio="xMinYMin">
      <g id="g1055">
        <path id="Maharashtra"
          d="M215.2179 550.1668c-.1889-.0264-.4382.053-.7593.2682-1.7036 1.1332-1.7036 4.922-4.548 4.3553-2.7348-.5477-2.1455 3.1088-5.9946.4986a1.035 1.035 0 0 1-.9633.5856c-.8046 0-1.341-.136-1.6091.2644-.2645.4041-.1322 1.4051-.7329 1.7376-.6043.34-2.138.4721-2.138.4721s.1965 1.6734.5969 2.1418c.4042.4684.8046.068.4684 1.205-.3324 1.1332.136 2.0738-.8688 2.206-1.0048.136-2.0058.4684-1.7376 1.6734.2644 1.2012.2002 2.2702.8688 2.5384.6686.2681 1.273.4004 2.2097-.068.9368-.4684 1.2013-.6649 2.8066-.5969 1.6054.0643 1.0048-.136 2.6102-.136s1.4732.7366 2.8746-.1322c1.4052-.8688 2.5422-1.0047 2.9463-.6686a1.9 1.9 0 0 1 .6686 1.6017c-.068.6723.2002 1.273-.7366 1.5411-.9367.2682-2.8783.2644-4.4195.4646-1.5374.2002-3.343.8688-4.0116 1.5412-.6686.6686-.6006 2.41-1.2692 2.9464-.6686.5326-1.7375 2.07-3.0105 2.0058-1.2692-.068-1.5374-1.0048-1.6734-.136-.1322.8688 0 2.6744-.8688 2.6744s-2.07.136-2.9426.4004c-.8688.2681-2.342.272-1.6734.8083.6724.5326 3.0106 1.0652 3.479 1.3334.4684.2682.7366-.068 1.8736 2.0058 1.137 2.0776 2.5422 2.6064 2.5422 3.547 0 .9368.4004 1.9378.068 3.0106-.3362 1.069-1.4052 2.9425-1.8736 3.8113-.4684.8688 0 1.7414-.5364 2.2778-.5364.5326-3.0748 1.3372-4.2798 1.001a18.5847 18.5847 0 0 0-2.8783-.6044 2.8217 2.8217 0 0 1-2.0738-1.6734c-.3362-.933.2002-1.5374-.8008-1.8018-1.0048-.2644-2.8784.4684-3.1466 1.4052-.2644.9368.068 1.5374.8046 2.206.7366.6724 1.6734 2.6102.8046 3.615-.8688 1.001-1.8094 1.9377-1.6734 2.9387.1322 1.0048.4684 3.5432-.7366 4.4158-1.1899.8575-4.7973 2.4364-5.4583 2.0209l-.204 1.5223s-.3022.2833-.6346.5477c-.34.2644-.7101.51-.8499.4382a68.4385 68.4385 0 0 0-3.0408-1.4128c-.2833-.1057-.9217-.3701-1.5563-.593a9.1941 9.1941 0 0 0-.9065-.272h-.0038a1.5865 1.5865 0 0 0-.646-.0529c-.4797.121-.6534.121-1.5487-.136 0 .0265.0076.053 0 .0756-.136.4042 1.4052 1.1408-1.341 1.0048-2.7423-.1322-3.0747-.068-4.412-.8688-1.3371-.8046-.1321-.6686-1.6053-.8688-.7555-.1058-1.3599-.2644-1.7263-.5137-.2455 1.1445-.6157 2.8897-.6157 3.1427 0 .3551-1.0576 3.819-1.5525 4.8124-.4948.9897-1.9113 4.0267-1.9113 4.0267l1.273 5.092c.0717.2832 1.9113 2.051 1.9113 2.3343 0 .2833-.1435 1.5563-.355 2.0512a7.5472 7.5472 0 0 0-.3363 1.424c-.0868.5742-.1246 1.1219-.0188 1.2654.2115.2833 2.5459 1.6243 2.5459 1.6243l-1.4807 2.4742s-.1436 4.3175-.1436 4.9521c0 .4798.0794 3.8983.3589 5.4017a2.4553 2.4553 0 0 0 .1586.5666c.0567.1209.1171.1662.1889.1133.5666-.4193 2.4742-3.9549 2.8293-4.3138a1.798 1.798 0 0 1 .6686-.2568c.982-.2455 2.6555-.4457 2.6555-.4457s1.3447 1.4127.355 2.051c-.9897.6347-2.833.7065-3.1125.918-.0718.0529-.121.2342-.1511.4835a6.497 6.497 0 0 0-.0265.8839c.019.6422.1058 1.3145.2493 1.526.2116.3174.7782.918.782 1.2541 0 .1134-.0567.1965-.2191.2305-.3702.083-1.5525.2568-2.5573.5552-.2833.0831-.5855.1625-.8122.272a1.9907 1.9907 0 0 0-.4344.2682.7064.7064 0 0 0-.2266.3173c-.2833.9217.7064 4.3818 1.1332 5.3034.3173.6875.952 1.7754 1.103 2.3382.0491.189.0453.3136-.0415.3513-.3551.1398-1.8396 1.2012-1.8396 1.2012s-.0642.0643-.1171.1965a1.2994 1.2994 0 0 0-.0756.6232 2.988 2.988 0 0 0 .3702 1.1144c.2455.4608.6346 1.016 1.2352 1.6696.6006.6535 1.0577 1.2314 1.3976 1.7527 1.0313 1.56 1.0426 2.595.9368 3.5507a7.1392 7.1392 0 0 0 .0982 2.138c.0756.3777.1814.763.3287 1.1408.151.3777.3324.7479.5666 1.0992 0 0-.0038 0 0 0 .4533.7064.831 1.4845 1.2503 2.4666.4268.9821.9028 2.1682 1.5752 3.6905a10.9922 10.9922 0 0 1 .9443 4.057c.0642 1.1898-.0264 2.2323.0453 3.154.1058 1.3788-.5401 2.6404-.6346 3.5999-.0302.321 0 .6043.1398.8536a1.851 1.851 0 0 0 .6422.6158c.5288.34 1.2087.5552 1.6167.8083.204.1247.34.2569.3588.4155.0151.1587-.0793.2682-.2266.3778-.1511.1133-.34.219-.525.3777a1.3108 1.3108 0 0 0-.4874 1.1068l-.0037.0604c.0037.2002.0377.4269.1133.6913.1397.5288.306.9821.4797 1.3712.3513.7781.7253 1.3183.9708 1.7602a2.0927 2.0927 0 0 1 .2455.612c.0038.0226-.0189.2417-.0189.2757.0718 1.1181-.8725 7.925.019 10.1914.4608 1.1672.7554 2.2437.9065 3.3316.1586 1.088.1662 2.1834.0604 3.3846-.0264.3021-.0113.6799.034 1.1143.0416.4344.1171.9254.2154 1.4505.5968 3.1541 2.0548 7.5699 2.7423 8.6804.9217 1.4883 1.5563 3.3241 1.6243 4.529.0755 1.2013.4268 4.1703 1.628 5.0202.9066.6384 1.6885 1.6696 2.021 2.444.1133.2606.1737.491.1737.6686 0 .1737.102.3248.272.4495.3324.2418.9368.3702 1.5185.3664.2908 0 .578-.0378.8272-.1095.491-.1398 1.2201-.3022 1.9114-.5666.17-.068.321-.1625.4835-.2418a2.8708 2.8708 0 0 0 1.2088-.9557v-.0113h.0037a3.343 3.343 0 0 1 .612-.7366c.4495-.4042.8008-.4608.8008-.4608s2.1228 3.2523 2.901 3.7471c.389.2493 1.0954.6724 1.851.9368.3739.1322.7592.2266 1.1218.238h.049a2.0889 2.0889 0 0 0 .476-.0491c.0945-.0227.1738-.0756.2607-.1133.0642-.0303.1397-.0454.2002-.0907a3.5356 3.5356 0 0 0 .714-.6535c.117-.1397.2114-.2946.3134-.4457.0718-.1058.1511-.204.2191-.3135.3286-.5289.6308-1.0955 1.0879-1.6243.4608-.5288.7441-1.0577 1.0577-1.3976a1.0652 1.0652 0 0 1 .5326-.3324 1.2352 1.2352 0 0 1 .7441.102c1.205.4948 3.9625-.0718 4.597-.6347.3212-.2833.85-.6912 1.3524-1.2767.253-.2909.4986-.627.7064-1.0123a5.2166 5.2166 0 0 0 .6119-2.5951 4.5895 4.5895 0 0 0-.1322-.9481c-.0642-.2758-.1436-.5138-.2002-.7366a1.9378 1.9378 0 0 1-.0756-.6422.6875.6875 0 0 1 .2531-.4797c.2644-.238.68-.4042.9897-.7857.0151-.0189.0378-.0264.0491-.0453a1.8622 1.8622 0 0 0 .34-.8764c.1586-1.171.1548-2.5308-.4193-3.324a1.579 1.579 0 0 0-.7857-.5667 2.5195 2.5195 0 0 1-.9444-.5892c-.8688-.8197-1.477-2.1871-1.5298-2.8746a1.9038 1.9038 0 0 0-.219-.7064c-.3665-.7253-1.1069-1.5034-1.6923-2.4062a1.9869 1.9869 0 0 1-.3249-.8952 1.3032 1.3032 0 0 1 .7252-1.3334 1.9038 1.9038 0 0 1 .9444-.1776c1.1143.0529 2.425.3022 3.46-.0189a2.2135 2.2135 0 0 0 .9255-.544 2.391 2.391 0 0 1 2.3873-.627c.2531.068.4911.1662.7215.272.6308.2909 1.7187.5062 2.595.1851a1.8131 1.8131 0 0 0 .6724-.3702 1.9 1.9 0 0 0 .3438-.4533c.389-.7026.6346-1.254.9972-1.696.0189-.0227.0529-.0378.0718-.0604a3.4148 3.4148 0 0 1 1.6167-.9973c1.6998-.5666 4.1022-.5666 4.665-.7063.2871-.0718.461-.7933.612-1.7074.1511-.9066.2757-2.0058.4533-2.818.0189-.1057.0529-.1435.0755-.2304.0718-.2644.1398-.5288.2342-.6799.0907-.151.2153-.2002.34-.253.0453-.019.0756-.0832.1247-.0907a1.443 1.443 0 0 1 .7328.1586h.0037c.3022.1322.6649.3362 1.1068.6006 1.5487.9293 2.1153 2.4553 4.038 2.2967.272-.0227.5742-.0756.9104-.1738 1.3447-.389 2.0889-.831 2.6441-1.2767.5591-.442.9293-.8802 1.5299-1.2693 1.2012-.778 8.2724-.423 8.9788-.7063.4457-.1775 1.3296-.1322 1.8434-.559.3097-.257.4872-.68.3513-1.4241-.3513-1.9794-1.4845-2.7575-1.4845-3.9625 0-.3022.0377-.4646.0906-.5704.1587-.3249.476-.151.476-1.6885 0-1.5412-.476-1.4467-.8046-2.1418a3.2032 3.2032 0 0 1-.2569-1.0425c-.1058-.9935-.2153-1.7376-.0982-2.1531a.5666.5666 0 0 1 .1322-.2455.4155.4155 0 0 1 .2342-.1171c.1927-.0378.476.0226.865.1813 1.1635.4797 1.9756 1.4732 3.1428 2.1493.3853.2266.816.4155 1.3108.5402.9896.2455 1.7338.4381 2.493.5175.763.083 1.5374.049 2.5989-.1625 1.0576-.2153 1.7149-.2342 2.2022-.136.4873.0983.8046.3098 1.1936.5591.1927.1247.4004.2644.627.3966.4534.2644.9822.4835 1.632.4495a2.988 2.988 0 0 0 1.0651-.2795c1.5563-.7101 2.546-.7064 3.6074-.2833.7933.3173 2.1494.8726 2.954.6535a.8008.8008 0 0 0 .5854-.5137c.2116-.5666.8273-1.0426 1.1181-1.4317a.7932.7932 0 0 0 .1473-.272c.0378-.1737-.0453-.321-.3512-.4494a3.3203 3.3203 0 0 0-.6346-.1738 3.2485 3.2485 0 0 1-1.3939-.6195 3.4487 3.4487 0 0 1-1.3032-2.2173 2.274 2.274 0 0 1 .0793-1.0577 2.8746 2.8746 0 0 1 .4533-.8083 5.0617 5.0617 0 0 1 .6044-.6497c.4268-.3891.8537-.6913 1.0652-.9368.3173-.374 1.749-1.662 2.5649-2.7877a3.1881 3.1881 0 0 0 .5439-1.035c.287-1.2013.9217-.4231.9217-.4231s0 .7744.1435 1.4807a.3777.3777 0 0 0 .1133.2116c.4155.374 1.7074-.0831 2.0776-.7026.1058-.1776.2153-.2833.3248-.3287a.287.287 0 0 1 .3022.053c.1851.151.3287.5212.3627 1.0538.0717 1.0577-.1436 2.6177.9897 1.5563.8499-.7933 1.2994-1.5525 1.6242-2.6253.1058-.3588.1964-.7555.2871-1.1974a2.7462 2.7462 0 0 0 .0227-1.0577c-.102-.5364-.3287-.7781-.0907-.8914a2.425 2.425 0 0 1 .7744-.0983 6.346 6.346 0 0 1 1.2163.0831c.3815.0605.7328.136 1.0388.1776.457.068.8083.0642 1.001-.1662a.68.68 0 0 0 .1397-.3098v-.083c.1927-1.0426.0643-2.2665-.1435-3.022-.0907-.34.0227-.7517.1889-1.1596.0226-.0605.034-.1171.0604-.1776.2115-.4684.4948-.9254.6724-1.2843.0868-.1737.1284-.3777.1813-.6044.0226-.0868.0793-.1813.1133-.272.0453-.1435.0756-.2832.1662-.4268.1511-.238.3777-.476.7517-.6988.3777-.2228.8915-.4306 1.6167-.6044 1.1899-.2946 1.7792-.374 2.3382-.5137a3.0295 3.0295 0 0 0 1.001-.4306c.0831-.0642.1813-.0869.2607-.17a5.0995 5.0995 0 0 0 .7139-1.0765c.3173-.593.8424-1.4203 1.3108-2.191.3173-.525.5552-.982.8838-1.4769a19.9446 19.9446 0 0 1 1.1484-1.594c.3437-.4156.6346-.695.831-.748.1926-.0528.3702-.1624.5364-.2606a1.1219 1.1219 0 0 1 .4608-.1926c.2909-.019.559.2795.8386 1.4467.2833 1.1672.5666 2.3684.9292 3.2788.1814.4532.3853.8385.6157 1.1067.2267.2645.4911.4231.7933.4231.6006 0 .899.1775 1.1936.1209.1436-.0265.2871-.1133.4647-.3022a6.4329 6.4329 0 0 0 .6761-.9481 23.6124 23.6124 0 0 0 1.4845-3.003c.4231-.9897.7744-1.8736 1.0577-2.3685.2833-.4948.816-.5855 1.3636-.7554a2.663 2.663 0 0 0 .8046-.3702 1.8056 1.8056 0 0 0 .3626-.34 2.2702 2.2702 0 0 0 .3022-.5137c.0756-.1851.0831-.272.1285-.4155.049-.1587.136-.3664.151-.4835.0303-.204.0227-.3513.0265-.5024v-.0265c0-.0377.0227-.083.0264-.117.0114-.1285.019-.257.0945-.442.0944-.2342.2606-.5402.559-.9821.6044-.8802 1.0804-1.0577 1.5223-1.171.1511-.0378.2946-.0907.442-.1398a1.6507 1.6507 0 0 0 .8688-.6648 1.6923 1.6923 0 0 0 .2342-.4457 1.2692 1.2692 0 0 0 .0717-.3853c.0076-.4382-.1662-.7517-.0113-1.0048.0113-.0227-.0076-.0529.0113-.0756.121-.1284.3627-.2455.8235-.3513 1.3372-.3097 1.6923.1171 1.8207-.0264h.0189a1.2692 1.2692 0 0 0 .0604-.408c0-.0302.0076-.0264.0113-.0566.0038-.0982.0303-.1662.0454-.2569.1322-.9066.525-1.5865-.1171-2.357-.355-.4269-1.3259-1.273-2.1569-2.2212-.831-.9443-1.5185-1.9869-1.307-2.8028.2116-.8121.476-1.22.7215-1.4656.2078-.2078.3777-.3022.5137-.4306.0302-.0265.0793-.0529.1058-.0831a8.4236 8.4236 0 0 0 .6648-1.1786 24.8816 24.8816 0 0 0 .8235-1.866 4.4573 4.4573 0 0 1 .442-.8574 6.126 6.126 0 0 1 .5099-.68c.34-.4004.6346-.68.7441-.8574.053-.0907.0756-.1134.1058-.0756.0302.0302.068.1209.1586.2607a3.0975 3.0975 0 0 0 .4533.5363c.2229.2191.5364.476.9821.7593 1.3221.8499 2.3307 1.4618 3.1995 1.6507a2.3684 2.3684 0 0 0 .831.0491 3.1239 3.1239 0 0 0 1.458-.559 2.2929 2.2929 0 0 0 .8727-1.3524c.2153-.9027-.0491-1.5638.0717-2.1984a1.5034 1.5034 0 0 1 .2833-.6308 1.2956 1.2956 0 0 1 .5477-.423c.2003-.087.4193-.1398.646-.204.1284-.0378.2606-.1134.389-.17.0983-.0416.1965-.0605.2985-.1285.2266-.151.4532-.3626.6648-.6988.8499-1.3447.8499-2.119.355-2.8972-.2493-.3891-.1435-.6913.0756-.9821.2229-.2947.559-.5742.7706-.9293.2115-.355.7781-1.273 1.1936-2.1909.2078-.4646.3778-.9216.4495-1.3107a1.6092 1.6092 0 0 0 .019-.525.5968.5968 0 0 0-.1776-.359 4.1929 4.1929 0 0 1-.9443-1.2464 1.7565 1.7565 0 0 1-.1776-.6082.6422.6422 0 0 1 .1322-.4722c.2153-.2493.6913-.2493 1.1937-.0982.253.0756.51.1889.7479.3249a2.6064 2.6064 0 0 1 .6044.4797c.457.5062.8121 1.0199 1.3372.763.0226-.0113.0415 0 .0642-.0113.0982-.0567.2266-.2342.3362-.3513.102-.1133.1964-.1624.3135-.3324a7.517 7.517 0 0 1 .6686-.85c.612-.642 1.0992-.6685 1.9491-.136 1.1332.7065 2.3344.4912 3.6754.7782h.0038c.6723.1398 1.1332.087 1.5223.2531a1.322 1.322 0 0 1 .544.4722c.1774.2455.355.6006.5514 1.1105.5817 1.5412.0907 2.5989 1.035 3.275.1549.1133.3513.2115.6006.3022.2493.0907.5477.1738.9066.2455 1.4505.2833 2.2853.4571 2.867.6422.5855.1889.918.3815 1.3788.6988.9179.6384 1.4845 1.1332 2.7574 1.6243.9557.3777 1.7527.9821 2.2702.967a.491.491 0 0 0 .4193-.2569 3.324 3.324 0 0 0 .408-1.1974c.068-.442.0869-.9217.0869-1.4165 0-.1209.0302-.2267.0868-.306a.578.578 0 0 1 .238-.1964c.4042-.1926 1.122-.1133 1.7943.0982.3362.1096.6572.2493.9217.408 1.05.6308 2.6555 1.662 4.8123 1.2767h.068c.1511-.0302.238-.068.374-.102.3588-.083.7177-.17.9934-.272.3778-.136.695-.2795 1.001-.4192.6195-.2833 1.205-.5478 2.157-.6913 1.9113-.2833 2.9727-.7744 4.2457.6422.6346.7063 1.4656 1.4127 2.138 2.0586.3362.3211.6346.627.8461.9066.2116.287.34.5477.34.7781l-.0113.1474c-.0114.9934-.2153 3.5205-.5553 5.5074a5.0768 5.0768 0 0 1-.3286 1.171 4.344 4.344 0 0 1-.3778.6761c-.1246.1889-.2417.3626-.3286.5893a2.682 2.682 0 0 0-.17.8877c-.0529 1.1634.253 1.137.68 1.7073a4.3364 4.3364 0 0 1 .744 1.9416c.0416.355.0492.6913.053 1.0275.0037.34.0075.6686.0453 1.0048.0378.34.1058.6799.2455 1.0312.2833.7101.389 1.2918.4684 1.8547.0831.5666.136 1.1105.3135 1.7489.087.3173.1285.6082.1814.8688.1586.7857.4381 1.3032 2.5044 1.4618 2.7574.2116 4.8086.2833 5.6585-.4948.8499-.7781 1.4845-.7064 2.4024-1.4807.9217-.7782 1.56-2.2665 1.1332-3.9625-.423-1.6998-.9897-1.6243-.2833-2.901.7101-1.273.9897-2.6178.9217-3.3959-.0718-.7781 1.273-.5666 1.7678-.8461.491-.2833 0-1.3448.6346-2.546.6384-1.205 2.1229-1.6242 2.6177-2.546.491-.9216 2.4742-.355 3.3241.2834.85.6346 2.1229 3.0408 3.819 1.9075 1.6998-1.1332 2.3344-1.6998 2.6177-2.9728.2833-1.2691.4948-3.1805 1.6242-3.8869 1.1332-.7063.9217-1.4845.1436-2.1229-.7782-.6346-1.9794-1.4845-3.1806-1.4845-1.205 0-4.3137-2.2664-4.6688-3.5356-.3551-1.273-.3551-1.7678-.9935-1.9793-.6346-.2116-1.8358-.1436-2.8255.3512-.9934.4949-2.1228 0-1.9113-.7063.2115-.7064 1.0577 0 1.6998-1.0615.6346-1.0576.918-1.273.986-2.4741.0755-1.205.9216-1.9076 1.56-2.901.6346-.9897 2.119-.85.8461-1.8397-1.273-.9896-1.6998-1.3447-2.3344-2.4741-.6346-1.1333-.2833-1.1333-1.4128-1.205-1.1332-.068-2.833.0755-1.9113-1.0577.9217-1.1332 1.8396-.9897 3.0408-1.6243 1.205-.6421 2.2664-.4986 2.6177-.8537.355-.3512.5666-2.051.4948-3.6753-.068-1.6243 1.0615-3.4639.1436-4.174-.9217-.7064-3.1844-.9897-3.5357-1.273-.355-.2833-1.0652-.5666-.1435-1.1332.918-.5666 2.1229-1.0577 2.1229-2.3307 0-1.2767.6346-1.0652-1.0614-3.5394-1.6999-2.4742-2.4062-3.6754-2.6178-5.515-.2115-1.8395-.6346-2.6894.2116-3.6073.8499-.9217 1.273-1.6243 2.7575-2.4062 1.4882-.7782 2.3344-.9897 2.7574-1.9076.4269-.9217 1.4883-6.3649-.2795-7.2866-1.7716-.9179-2.546.85-5.515-3.2523l-3.7018-1.9756-.321.087a2.9615 2.9615 0 0 0-1.36-.1776c-2.8443.1888-7.3923 1.137-8.907 2.085-1.5147.9444-2.6517.9444-4.9257.5667-2.274-.3777-2.0851-2.4629-5.1146-.9481-3.0332 1.5147-2.6517.9443-3.9775-.1889-1.3259-1.1332-2.8444-.9443-4.548-1.8962-1.7074-.9444-3.5999-2.4591-4.3591-1.8887-.7555.5666 1.137 2.6517-1.8925 2.6517-3.0294 0-5.3034-1.3297-6.4404.9443-1.137 2.2702-.3777 3.9776-1.3296 4.1665-.9444.1889-4.1665 1.5185-7.007.3815-2.8444-1.137-1.326-1.8963-5.1146-3.2221-3.7887-1.3259-5.4961-1.322-7.1997.9481-1.7074 2.274-2.274 2.0851-4.7369 3.0333-2.4628.9443-2.085 1.322-5.1145 1.1332-3.0333-.1889-4.9257-1.3221-6.4442 0-1.5148 1.3258-3.2184.7592-4.1665-.7555-.9443-1.5147-2.4628-2.0851-1.322-2.8406 1.1332-.7555 2.6479-.1889 3.2145-.9519.5704-.7555 1.8962 0 .7592-2.6517-1.1332-2.6517.3778-3.7887-1.322-4.5442-1.7074-.7555-5.685-2.8406-7.2035-1.1332-1.511 1.6998 1.1408 3.2183-2.8406 2.8406-3.9776-.3815-7.7663-2.274-9.281 0-1.5185 2.2702-1.8963 2.2664-3.0333 3.9738-1.1332 1.7036-1.7036 1.137-1.7036 2.274s.5667 1.3258-1.137 2.6555c-1.7073 1.322-2.085-.3816-2.274 2.8405-.1888 3.2221 2.8407 3.9776-1.137 4.5442-3.9775.5666-3.5998.1927-4.359 1.8963-.7555 1.7074.3777 2.6517-1.322 1.8924-1.7075-.7554-2.8445-1.7036-4.9296-.9443-2.0813.7555-1.322 1.511-1.322-2.8444 0-4.359-1.5186-7.1997-6.0665-6.822-4.548.3778-4.1665 1.1409-6.059.1965-1.8962-.9519-2.6517-1.5185-3.9775-.3815-1.3297 1.1332-3.411.5666-7.1997 0-3.7887-.5704-2.274 1.1332-4.1702 1.3258-1.8925.189-1.3259-.3777-1.8925-2.4628s.3777-1.5147-1.5185-3.411c-1.8925-1.8924-1.5147-2.0813-3.5998-2.6517-2.0814-.5666-3.4072.7555-4.7331.7555-1.3259 0-.9481.1889-2.2778-1.7036-1.322-1.8963-3.2183-.9444-4.1664-2.8406-.9444-1.8963 1.7074-4.548 0-6.2516-1.7036-1.7073-2.2702.3778-2.459-1.7036-.155-1.696.0641-3.766-.7593-3.8718Z"
          style="font-variation-settings: normal; vector-effect: none; fill: rgb(204, 51, 51); fill-opacity: 1; stroke: rgb(0, 0, 0); stroke-width: 0.99943; stroke-linecap: butt; stroke-linejoin: miter; stroke-miterlimit: 4; stroke-dasharray: none; stroke-dashoffset: 0; stroke-opacity: 1; stop-color: rgb(0, 0, 0); cursor: crosshair; pointer-events: auto;"
          data-originalStrokeWidth="0.99943" fill="#cc3333" stroke="#000" pointer-events="auto" class=""
          stroke-width="0.99943" /><text id="Maharashtra_label" x="93.4878" y="677.6299"
          style="font-size: 38.9153px; stroke-width: 3.24295; display: none;" transform="rotate(-15)">
          <tspan id="Maharashtra_tspan" x="93.4878" y="677.6299" dy="0"
            style="font-style:normal;font-weight:400;font-size:16.2148px;font-family:Arial;text-align:center;text-anchor:middle;fill:#6a0707;stroke-width:3.24295"
            fill="#6a0707">Maharashtra</tspan>
        </text>
      </g>
    </svg>
  </g>
  <text id="credit-text-svg" font-family="Century Gothic,Segoe UI,Lucida Grande" font-size="8" font-weight="bold"
    fill="#000">
    <tspan id="credit-tspan-svg" x="57.333333333333336" y="1012.5853204116821" dy="0">
      Created with mapchart.net
    </tspan>
  </text>
</svg>