<?xml version="1.0" standalone="no"?>
<svg xmlns="http://www.w3.org/2000/svg" id="wrapper" viewBox="0 0 860 1021.361" preserveAspectRatio="xMinYMin"
  height="1021.361" width="860" style="background-color: transparent">
  <g id="map-group">
    <svg xmlns="http://www.w3.org/2000/svg" id="map" width="860" height="1021.361" version="1.1"
      viewBox="0 0 860 1021.361" preserveAspectRatio="xMinYMin">
      <g id="g1097">
        <path id="Odisha" fill="#cc3333" fill-opacity="1" stroke="#000" stroke-dasharray="none" stroke-dashoffset="0"
          stroke-linecap="butt" stroke-linejoin="miter" stroke-miterlimit="4" stroke-opacity="1" stroke-width="1.001"
          d="M546.611 538.1283a1.715 1.715 0 0 0-.5476.0378c-.4496.151-.4496 3.0634-.4496 3.5507 0 .4835.748 2.3873 1.1597 3.2863.4117.8953-.1133.4458-.5288 1.7905-.408 1.3448-.2947 2.8406-.3324 4.2231-.0378 1.3788-.9708 2.3118-1.6394 2.7953-.6724.491-1.6432.491-1.9076.3777-.2606-.1133-.7857-.4835-.9708-.1888-.1889.3022-1.2314.9368-1.6054.9707-.3777.0378-.1133-.6723.2984-1.1558.4118-.4873.4458-.748.2607-1.0086-.1889-.2644-.4835-.7064-.4118-.8952.0756-.1889.8235-.5629.8613-1.0086.0378-.4495-.748-.151-.933 0-.1889.1511-1.5714 1.8283-1.9454 2.2022-.374.374-2.3533-1.3447-2.9463-1.8282-.6044-.4873-1.6847.0378-2.6555.2606-.9708.2267-1.3826-.4117-1.6054-.7441-.2267-.34-1.5336.034-1.9416.4835-.4117.4457-1.5676.9708-2.0927.8952-.5212-.0755-1.2692.2267-1.2692.748 0 .5212-1.5298.9707-2.0548.7856-.5213-.1888-1.307-.9745-2.1645-1.647-.8574-.6723-1.2314-3.6224-.7819-5.4544.4457-1.8283-.4495-5.262-.525-6.0098-.0756-.748-1.6432-.6347-1.9416-.4496-.3022.189-.8953 1.6432-1.7565 1.9454-.8575.2984-2.5006-.525-3.921-.6724-1.4202-.151-1.4958.559-1.832 1.2692-.3362.7102-2.799.7102-4.106.374-1.307-.3362-1.9038-.0756-2.3533.7819-.4457.8612-4.446 1.1597-5.9002.8235-1.4581-.3362-2.5384-2.5384-3.6981-3.9965-.8008-1.0086-1.322-1.0426-1.647-1.0086-.1208.0114-1.4089.1436-1.662.6498-.2644.5288 1.4128 5.2278-.1737 5.4923-.6686.1133-3.158 2.7537-5.6548 2.4741-1.4052-.151-2.6517.7366-4.9975 2.5913-.6043.4722.612 2.4364-.0302 2.9653-.4042.3361.7933.3588.3211.627-.8688.491-.9141-.5402-2.0322-.17-1.7074.559 3.766 6.1987.151 5.3564-.2492-.0605-1.0047 2.5384-2.0284 2.1266-.4948-.2002-1.9113-.4684-2.2437.6913-.9255 3.1994-1.4128 3.7282-2.2816 4.359-1.2578.918.4533 5.4093-.797 5.2506.9254.442 2.6744 1.409 2.3684 2.0398-.374.7706-1.613-.5704-2.7688.1889-.7933.525-.0378 1.7565-.782 2.5761-.3777.4118-.9594.087-1.5675.5893-1.069.884-2.2211 6.4593-2.259 4.718 0-.272-1.069-.0945-1.8433-.612-.6799-.4533-1.22-1.5978-2.2777-2.153-1.6885-.8802-1.6999 1.662-3.8378 1.001-.7857-.2418-2.1154.0868-2.9842-.1965-1.254-.4155-2.9879 2.391-3.2863 4.1249-.2984 1.7527-.3286 4.6462-1.9076 3.2372-.5477-.491-.2077 2.2287-.7668 1.4203-.3286-.476 1.6998 2.561.6875 3.022-1.1257.506-2.2287-1.5375-4.0418-.8689-1.9453.7177 1.8207 4.2609.1058 5.598-.491.3816.0642 2.4025.253 4.0721.1436 1.2768 1.2957 3.445.3778 3.4185-.8461-.0226 1.594 3.5432.0189 2.1682-.816-.7101.3135 2.2023.7177 4.295.17.88-.1247 2.2361.3097 3.9586.3778 1.5034 4.5707 1.9416 4.412 2.546-.068.2644 5.6359.1737 4.6764.204-.4042.0113.1624 2.138-.4646 3.324-.2455.4684 1.1899 1.8132.593 1.934-.2644.053-1.7225 1.0577-2.4628.8122-.8197-.272-3.4979-.4533-2.6706-1.3145.4306-.4495-1.579.0037-2.206-.68-.6648-.7252-3.5696.9557-4.0191.2191-.4798-.7932-2.274-3.9775-2.3798-4.0531-1.2163-.8386-6.3384-.9217-7.2903-1.6847-.612-.491-1.4845.1889-2.0927.2493-.714.068-2.4213.2682-2.8217.865-.51.7668.3513 2.0247-.136 2.8104-.6648 1.069 2.1909 2.1947 2.3873 2.4515.3211.4155 4.1438.695 4.4951 2.2022.1662.7177-.2795 1.6432-.899 2.4969-.4269.5855 1.7602 1.137 1.3145 1.56-.1889.1776-.2833 1.8774-.5288 3.6339-.1511 1.069 3.5545 2.2815 3.2448 3.0596-.1776.442 2.595 1.749 1.6431 1.9114-.8008.136.2758 6.6255-1.4354 6.2553-.6044-.1284 3.1277 1.8736 2.8142 3.1881-.2796 1.1937-.1134 3.1466-1.6999 3.5659-.763.2002-1.6205 4.0304-2.8141 3.7585-.6875-.1587.2644 2.3344-2.2665 2.2022-.5288.1775-1.5789-.238-2.3721-.6422-.1134.1927-.7744.4156-1.3183 1.2768.6912 1.5487 3.528 1.5298 1.4165 2.5875-.9104.4533-2.5838 4.65-4.99 5.904-3.188 1.662-4.8765 2.9086-5.5716 3.6301-.3022.321-1.4656-.6497-2.1493.5968-1.851 3.3694-.816 5.7039-.816 5.7039l-.5288 2.8443-2.1606 2.2891c.3475.6422.5288 2.7575.7932 3.1881l.102.1889c-.0075-.0567.0038-.0944.0642-.0831.476.1058 3.853-1.6923 4.9106-1.6923 1.0577 0 2.852-.6837 3.6452-1.6394.7933-.9443 1.6923-2.323 2.9086-2.376a21.191 21.191 0 0 0 3.0634-.3134c.7933-.1587 1.7414-2.274 2.5347-2.5384.7932-.2645 3.12-.7404 4.2797-.4231 1.1635.3173 2.3798 1.1634 3.1164 1.5865.7403.423 1.1634.476 1.375.1586.2115-.3173.3701-1.0047.9518-1.6922s1.6356-.4722 1.6885-1.6356c.0529-1.1635-.102-1.9567-.3135-2.4855a7.6303 7.6303 0 0 1-.423-2.5347c0-1.0048.4192-1.1105.3172-1.9-.1095-.7932-1.0576-1.0086-.1057-2.221.9519-1.2164 1.5298-2.3798 2.0057-2.7462.476-.3702 1.798-.4231 1.9038-.1058.1058.3173.8953 3.0597 1.4732 3.4298.5855.3702 1.5865 2.2211 1.5865 3.173 0 .9482 1.1144.476 1.1144.476s.3135-.5817 1.6884-1.2163c1.375-.6346 2.274-.3702 2.852-1.798.5817-1.4241.899-2.1116 1.9567-1.7414 1.0576.3702 1.7413.9481 2.4817 1.1105.7404.1587 2.0624.7404 2.75.476.6874-.2644 1.2653-1.2163 1.2653-1.2163s-1.6393-.6875-1.5298-1.477c.102-.7932 1.0577-.9028 1.1596-1.851.1058-.9518-1.1596-2.0095-.9518-3.645.2115-1.6395.6383-1.7981 1.9038-2.2212 1.2691-.423 4.121-2.1644 5.02-3.3807.8991-1.2126 1.5866-2.1154 1.5866-3.0635 0-.9519-.3173-2.0587-.1587-2.3268.1587-.2645.7933.1057 1.2126-.4231.423-.5289.6875-1.6356.6875-1.953 0-.3172-.7404-.7932.5817-1.322 1.322-.5288 1.5865-.102 2.2173.2644.6384.3702 1.4278.1058 1.9567-.8461.5288-.9481.8461-1.5299.8461-1.5299s.476.2645.7933 1.1597c.3135.9028-.2116 2.1153.5288 3.0672.7366.9481 1.6356 1.4279 1.7376.8462.1095-.5818.374-1.4279.374-1.4279s.3173.952 1.2125 2.0096c.899 1.0576 1.322 1.424 1.8509 2.2173.5288.7932 2.0625 1.375 4.2798 1.2163 2.221-.1624 3.3807-.1586 5.175-.2644 1.798-.1058 2.697-.321 3.3845-1.0048.6837-.6875 2.1153-1.1634 2.6933-2.5346.5817-1.375.476-3.4374 2.2702-3.6452 1.798-.2115 3.3279-1.6922 4.5442-1.5865 1.2163.1058 3.649-.3702 4.4384-2.0095.7932-1.6357 1.9038-2.9577 3.2788-4.227 1.3712-1.2654 4.3817-1.2162 5.3374-3.1692.9443-1.9529 2.852-1.322 3.0597-2.4817.2115-1.1634.899-3.222-.578-3.4374-1.4807-.2078-3.3845.321-3.8605-.6837-.4721-1.0048-.3135-1.7452.6346-2.2702.952-.5288 4.2836-2.8557 4.8087-2.9086.5288-.0529.423 2.1153.476 2.4326.0528.3173.4759 2.7462 1.9037 3.0106 1.424.2644 2.2173-.2115 3.6943-.7932 1.4807-.5818 3.3845-1.2655 4.7595-2.1645 1.3712-.899 8.9788-4.174 12.571-5.496 3.5924-1.3221 7.1884-4.3327 8.2952-5.9154 1.1106-1.5865 5.0201-6.025 5.4961-6.1307.476-.1058 2.2173-2.2211 2.323-3.4374.1059-1.2126-.8423-2.3193-.5779-3.6414.2645-1.3221 2.3231-3.0673 2.7462-3.4865.423-.4231 1.6394-2.1683 2.0096-2.6971.3701-.5288-.4798-2.5875-.4798-3.1163 0-.5289.3211-2.0058.6346-2.6404.3173-.6346-.0528-1.7452-.476-2.4327-.423-.6874-4.597-3.698-4.174-5.8096.4232-2.1153 1.428-2.697 2.3798-3.8605.9482-1.1596 3.2221-2.9576 4.0683-3.9095.8461-.9482 1.6885-1.6356 2.8519-1.6885 1.1634-.0529 2.3798-.899 4.1173-1.6394 1.7452-.7404.4269-1.322 3.3846-1.5865 2.9577-.2644 4.597.0567 6.6557-.7366 2.0625-.7932 2.9577-.7366 2.3798-1.477-.5818-.7403.2644-1.322-.6875-2.8556-.952-1.5299-2.2702-3.5394-4.5404-3.5394-2.274 0-12.3143-2.9086-12.896-3.2221-.389-.2116-5.2392-4.2912-9.0657-7.1204-.0264.5213-.6422.4684-1.2994.5024-.7102.0378-1.5714-.0718-1.6092-.2229-.0378-.151-.9708-.4495-2.7273-.8197-1.7527-.3777-2.017-1.3447-2.8708-1.9076-.8612-.559-1.3485.6006-1.3485 1.0464 0 .4533-.9708 1.1596-1.6431 1.0463-.6724-.1133-1.2315-1.118-1.6772-1.8282-.4533-.7102-.8613-2.6518-2.9917-2.8406-2.1304-.1851-1.9416-.7442-2.24-1.1937-.2228-.34-1.3107-.5666-2.0284-.6006ZM419.6119 683.7538c.0378.3022.7253 1.2163 0 0Zm15.2229-28.2019c.0755-.1284-.0756-.2417-.6573-.51-.7706-.3626-.2078.068.6573.51Zm36.4592-83.48a2.7575 2.7575 0 0 0-.544-.2342 1.322 1.322 0 0 0 .544.238Z"
          opacity="1" stop-color="#000" stop-opacity="1"
          style="font-variation-settings: normal; fill: rgb(204, 51, 51); stroke: rgb(0, 0, 0); stroke-width: 1.001; pointer-events: auto;"
          vector-effect="none" data-originalStrokeWidth="1.001" pointer-events="auto" /><text id="Odisha_label"
          x="512.3729" y="601.7054" style="font-size: 45.3285px; stroke-width: 3.77738; display: none;">
          <tspan id="Odisha_tspan" x="512.3729" y="601.7054" dy="0"
            style="font-style:normal;font-weight:400;font-size:18.8869px;font-family:Arial;text-align:center;text-anchor:middle;fill:#6a0707;stroke-width:3.77738"
            fill="#6a0707">Odisha</tspan>
        </text>
      </g>
    </svg>
  </g>
  <text id="credit-text-svg" font-family="Century Gothic,Segoe UI,Lucida Grande" font-size="8" font-weight="bold"
    fill="#000">
    <tspan id="credit-tspan-svg" x="57.333333333333336" y="1012.5853204116821" dy="0">
      Created with mapchart.net
    </tspan>
  </text>
</svg>