<?xml version="1.0" standalone="no"?>
<svg xmlns="http://www.w3.org/2000/svg" id="wrapper" viewBox="0 0 860 1021.361" preserveAspectRatio="xMinYMin"
  height="1021.361" width="860" style="background-color: transparent">
  <g id="map-group">
    <svg xmlns="http://www.w3.org/2000/svg" id="map" width="860" height="1021.361" version="1.1"
      viewBox="0 0 860 1021.361" preserveAspectRatio="xMinYMin">
      <g id="g1137">
        <path id="Rajasthan" fill="#cc3333" fill-opacity="1" stroke="#000" stroke-dasharray="none" stroke-dashoffset="0"
          stroke-linecap="butt" stroke-linejoin="miter" stroke-miterlimit="4" stroke-opacity="1" stroke-width="1.001"
          d="m203.0585 302.605-.476.1397c-2.342.7026.1134 1.4052-3.2863 1.8774-3.3958.4684-6.3233 1.171-7.143 1.6394-.8235.4684-4.3364 13.3606-4.3364 14.1803 0 .8197-2.4629 2.459-3.1655 3.751-.7026 1.2842-1.7602 2.459-2.1115 3.63-.3513 1.171-.6989.8234-.9368 1.8773-.2342 1.0577-6.4442 8.6729-7.026 9.3755-.5892.7026-3.7547 1.4052-6.0966 1.171-2.3458-.2342-3.6339.5855-3.868 1.6393-.2343 1.0577-.4685 1.9945-1.6432 3.2864-1.171 1.2843-1.7565 1.1672-3.63 2.4553-1.8775 1.2918-2.342 6.9163-3.751 9.1412-1.4052 2.2287-4.8049 3.3997-6.3271 4.3402-1.5261.9368-2.1154 2.6933-2.4629 4.684-.3513 1.9944-.7026 1.6431-1.171 2.8141-.4684 1.171-3.868 1.4052-5.5074 1.2881-1.6431-.1133-4.106-1.0539-7.5019-.7026-3.3996.3513-2.697 1.171-6.7992 1.2881-4.1023.1171-4.3327.5893-5.2695 1.409-.9406.8197-2.9312 1.6393-3.5167 1.6393-.5855 0-.7026-1.409-.7026-2.1115 0-.7026-1.0577-1.5223-1.526-2.8104-.4685-1.288 0-4.1022 0-4.6877 0-.5855-1.4053-1.7565-2.9313-2.2287-1.5223-.4683-9.8401 2.9313-10.7807 4.4574-.9368 1.5222-9.1412 11.4832-9.7267 12.1858-.5855.7026-9.0242 7.6152-9.961 8.2044-.9368.5855-3.0445 2.6933-3.7471 4.3327-.7064 1.6431-.5893 3.1654-.5893 5.394 0 2.2287 2.697 7.1469 4.4573 9.3755 1.7565 2.225 3.8643.5855 5.0353.816 1.171.238 2.342 1.8773 3.1654 2.3457.8197.4684 3.6338-.3513 4.4535-.3513.8197 0 1.6394.8235 1.4052 1.2919-.2342.4684.9406 3.1616.9406 3.6338 0 .4684-4.2194 9.3717-4.8086 10.078-.5855.7026 1.409 6.093 1.409 7.1469 0 1.0576 5.7416 6.327 6.9125 8.0836 1.171 1.7602 4.6878-.1134 6.331-.816 1.6393-.7063 3.0445.1134 3.3996 1.171.3513 1.054-1.526 2.6933-2.4629 3.63-.9368.9369 1.9907 5.8588 1.9907 6.9127 0 1.0577 3.9851 5.8625 3.751 7.2714-.238 1.4052 2.1115 8.435 3.6338 8.3178 1.5222-.117 2.9312-1.7565 4.4573-2.1078 1.5185-.3512.6988 1.054.8159 2.225.1133 1.171 1.2843.2341 2.9275.5854 1.6431.3513 4.3364-.9368 5.6283-1.4052 1.2843-.4684 4.4535-.2342 5.039.3513.5855.5855 1.4052.3513 2.58.8235 1.171.4684 1.5222.6988 2.9274 1.171 1.4052.4684.3513-.9406.4684-1.8774.1133-.9368 1.4052.2342 1.6394 1.171.2342.9406 3.2825-.4684 4.5706 0 1.288.4684 5.1561.4722 6.6784.4722 1.526 0 1.171.8197 1.0577 1.5223-.1171.7026-1.7565.4684-2.9313 1.171-1.171.7026.1171 1.0576 1.4052.9368 1.2919-.1134 5.6283 2.342 5.6283 1.9906 0-.3475.5817-1.171 1.0539-.8197.4684.3551 2.9275 2.697 3.3996 2.8142.4646.117 2.1078 1.4052 2.9275 1.7603.8197.3512 2.697.4646 3.2825.7025.5855.2342 2.6933-1.526 3.1617-1.8773.4722-.3513 1.0577-2.4629 1.4052-3.1655.355-.7025.1209-2.6932.5893-1.9906.4684.7063 1.9906 4.8048 2.2286 5.2732.2304.4684 1.2843 2.342.9368 2.8141-.3513.4684-1.2919.7026-1.9945 1.054-.7025.3512-.1133 2.3419.1172 2.814.2341.4685.8196 1.054 1.4051 1.9907.5855.9368.3551 1.409.3551 2.342 0 .9406 1.0539 1.9945 1.0539 1.9945l1.171-.7026.5855-2.459 1.526-1.1749s.2305.5855.5855 1.9907c.3513 1.4052 1.054 2.1154 1.4052 2.8142.3513.7026 1.0577 3.1654.4684 3.7509-.5855.5855-1.8736 1.288-1.8736 2.459s1.9907 3.3997 3.2788 4.4574c1.2919 1.0539 2.1078.2304 3.868 1.0501 1.7603.8235 1.2881 1.409 1.5223 2.9312.238 1.5223-.4684 3.751.4722 4.4573.9368.6989 2.4553 1.7527 3.513 3.0446 1.0576 1.2843 1.7564-.5855 2.2286-1.526.4684-.9368 1.5223-.7026 1.5223-.7026s1.288.4684 1.4052 1.526c.117 1.054.9368 0 1.6394 1.171s.4721.9368 1.171 1.4052c.7063.4684 1.1747.8197 1.1747 2.2286 0 1.4015.4684.7026 1.6432 1.2844 1.171.5892 1.9907 1.1747 2.8103 2.2286.8197 1.0577 1.2881.9368 2.5762.8197 1.2919-.1133 1.8774-.7026 3.6338-1.6394 1.7603-.9368 1.9945-.2342 3.0484-.7026 1.0577-.4722 2.9275-.7026 3.6338-1.288.7026-.5856-.1208-1.7565-.9368-3.0484-.8196-1.288-1.7602-.4684-2.9312-.8235-1.171-.3475-1.7565-.2304-1.7565-.5855 0-.3513.7026-.933.7026-1.9906 0-1.054 2.1078-2.8104 3.9851-3.0446 1.8736-.238 3.2788-.3513 3.3997-.9368.1133-.5855.8197-1.2919 1.8736-1.6432 1.0576-.3513 2.2248-1.4051 1.8735-2.2286-.3513-.816 0-1.6394.8235-2.6933.8197-1.0577-.238-1.7565-1.2919-3.0446-1.0576-1.2918-.117-2.4628.5855-3.6338.7026-1.171.8197-2.2286.9368-3.0483.1133-.8197-.5855-.7026-1.8736-2.5762-1.288-1.8774.3513-3.5168-.4683-3.751-.8197-.2341-1.6394-.3512-2.4629-1.7602-.8197-1.4052.2342-.9368 1.171-3.0446.9368-2.1115-.2304-2.1115-1.171-3.2825-.9368-1.171-1.4052-1.6432-.7026-2.4629.7026-.8196.8197-1.171.9368-2.1077.1171-.9368 1.8774-1.5223 3.2826-1.5223 1.4051 0 .8196-.3513 1.6431-1.2919.8197-.9368.4646-1.8736-.4722-2.2249-.9368-.3513-1.288-1.288-2.1077-1.9944-.8197-.7026-.1171-2.1078-.1171-2.1078s1.5222.4684 2.342 1.7565c.8196 1.2919 2.1077.355 3.2825.355 1.171 0 1.7565-1.0576 1.9906-1.8773.2342-.8197 2.1116-3.2788 2.1116-3.2788s4.8048-.7026 5.1561-.5855c.3513.1134.1133 2.5762-.3513 3.1617-.4721.5893-1.526.2342-1.526.2342l-.5817.3513c-.5893.3513 0 .7064.8196 1.409.8197.7026 2.1078.4646 2.4553.9368.3551.4683-.3475.5854-1.4014 1.0538-1.0576.4684-1.2918-.3512-1.7602-.7025-.4684-.3513-1.9907.3512-2.342.8196-.3513.4684.1171 2.8104.7026 3.3997.5855.5855 1.288.1133 2.697.1133 1.4052 0 2.1078.4684 3.0446 1.409.9406.9368 1.2919.7026 2.4629-.2342 1.171-.9368.5854-.5893 1.8735-.3513 1.2881.2304 1.2881.2342 1.8774-.5855.5855-.8197.5817-.9406 1.7565-.5893 1.171.355 2.459-.933 2.459-.933l.9368-.1209c.9406-.1133.5893 1.171.5893 3.0484 0 1.8735 0 2.2286 1.2881 3.7509 1.288 1.5223.5855 1.6394 0 2.9313-.5855 1.2843-2.9312 1.0538-3.513.7025-.5892-.355-.9405.3513-.9405 2.2287 0 1.8736 2.9312 2.221 3.2825 3.0408.3513.8197-1.9907 1.171-2.58 2.2286-.5854 1.0577 0 1.5261.5856 3.513.5855 1.9945.3512.8235-.2342 2.58-.5855 1.7602-2.1078.9367-2.1078.3512 0-.5854-1.409-1.2843-2.3458-1.2843-.9368 0-1.0539 1.054-2.1077 1.6394-1.0577.5855-2.2287.1133-3.2826.816-1.0539.7063.1171.9443 1.171 1.2918 1.0577.3513 1.0577 1.6394 1.7603 2.58.7025.9367.4683 1.171 1.4051.8196.9368-.3513 1.0577.1134 1.8774.8197.8197.7026 1.2843-.117 1.2843-1.0576 0-.933-.1133-1.9907.5893-2.225.7026-.2341 2.5762 1.292 3.3996 1.292.8197 0 1.2843-1.171 2.8104-2.4629 1.5223-1.288.1133-1.8774 1.171-2.2287 1.0576-.3475 3.3996-2.342 4.1022-3.513.7064-1.171 0-2.4628 0-3.868 0-1.4051 1.0577-1.8773 2.3458-1.526 1.288.3513.4684 1.6431.8197 2.2286.3512.5855 3.0445.1134 5.2732-.117 2.2286-.2343 2.6932 1.171 3.2787 1.9944.5893.8197 1.8774.3475 1.7603-.355-.1171-.7027.7026-1.8737 2.459-3.2788 1.7603-1.4052 1.409.4683 1.292 1.0576-.1172.5817-.5856 1.5185.3512 2.8104.9368 1.288 1.4052.9368 2.342 1.0539.9406.1133.5893.9368.9406 1.5223.3513.5855 1.5222-.7026 1.5222-1.6394 0-.9406.2342-1.526.5856-2.9313.3512-1.4052 0-1.8773-1.6394-2.697-1.6394-.816-.3513-.2304-.4684-1.2843-.1171-1.0577.2342-1.171.3513-2.3458.1133-1.171 0-.9405-.8197-2.1153-.8197-1.171-.3513-1.0501-.2342-1.7527.1133-.7026.933.2342 1.9907.9368 1.0538.7026 3.1654.8197 4.4535.7026 1.288-.1171.8197-1.7565.9368-4.1023.117-2.342-.9368-3.868-2.2287-4.684-1.288-.8196-2.5762-.355-3.1616-1.4089-.5855-1.0576.4683-.4684 1.0576-1.171.5817-.7026.2304-1.288-.238-1.8773-.4683-.5855.2342-3.3997 1.5223-4.0985 1.2919-.7026 2.9313 0 4.3402-.117 1.4052-.1172 4.2156-1.5261 4.684-1.6432.4684-.1133 1.526.3513 2.342.8197.8234.4721 2.2286-.3476 2.697-.8197.4684-.4684-.117-.8197-.5855-2.1078-.4684-1.288.2342-.3513.8197-1.0577.5855-.6988-.1133-1.171-.8197-1.5223-.7026-.3512-.8197-.4683-1.0576-1.9906-.2305-1.5223.355-2.2287-.3476-3.1655-.7026-.9368-.8234 0-1.6431.238-.8197.2342-1.6394 2.5762-2.1078 3.513-.4684.9368-.7026.117-2.2287-.1134-1.5222-.238-1.8735-.238-3.1616.6988-1.2919.9368-2.1078 0-4.4535 0-2.342 0-2.342-.9367-3.9852-2.342-1.6394-1.4089-3.751-2.3419-5.7416-3.6338-1.9907-1.288-.7026-3.513-1.4052-4.9219-.7026-1.4052-1.288-2.697 0-3.751 1.2881-1.0538 1.4052-2.8103 1.5223-3.868.117-1.0538 1.171-1.5222 3.2825-1.7564 2.1078-.2342 2.4591 0 3.2788-.5893.8235-.5855.3513-.8197 1.0577-1.4052.6988-.5855.4684-.4684.9368-1.5223.4683-1.0576-.1171-2.2286.4683-2.6932.5856-.4684 2.9313-.7064 3.751-1.0577.8197-.3513 1.0539-1.2881 1.5223-2.1078.4684-.8197 4.1022-1.6431 6.327-2.4628 2.2287-.8197.1172-1.2881 2.1116-3.6301 1.9907-2.342 3.3997-.7026 3.868-.7026.4685 0 1.9907-.7064 3.513-1.526 1.5261-.8197.9368.3512 1.5261-.2342.5855-.5856 0-1.5223 0-1.5223s.7026-.4684 2.1078-.7064c1.4052-.2342 1.6431-.6988 2.342-1.4052.7063-.7026.9405-1.0539 3.5167-1.171 2.58-.1133 1.7603-1.4052 1.171-2.5762-.5817-1.171-.4646-1.1747.2342-1.7602.7063-.5855.8234-1.0539.5855-1.9907-.2342-.9368-.6988-.3513-1.8736-.2342-1.171.1133-1.7565.7026-3.3996 0-1.6394-.7026-2.225.3513-2.9275.8197-.7026.4684-.9368.7026-2.8142.8197-1.8735.117-2.1077 0-2.4553.8197-.355.8197-1.6431 1.0577-1.6431 1.0577s-.3551-1.6432-.2342-3.0484c.1133-1.4052.9368-.9368 1.8736-1.0539.9368-.117 3.3996.3513 3.985.1171.5856-.2342 1.6395-1.171 1.5224-2.4628-.1171-1.2881-.5855-.2342-1.4052-.2342s-2.2287 0-1.7603-1.0577c.4722-1.0501-.8197-.816-.8197-.816l-.8197-.8196c-.8196-.8235.8197-.8235 1.5223-.8235s1.9945-1.2843 2.697-2.342c.7027-1.0576-.4683-.8234-.9367-1.8773s-.2342-1.2843-.3513-2.1078c-.1171-.8197-.9368-1.171-2.2287-2.342-1.288-1.171-1.288-.7026-1.9906-1.0576-.7064-.3475-1.2881.117-1.5261 1.0577-.2304.9367-1.171.3512-1.8736-.7027-.7026-1.0576-.3513-5.394-.3513-5.394l.2342-1.5223-.117-1.2881-.3967-.4533c-.2569-.0227-.6988-.287-1.4316-.2342-1.205.0869-2.4931-.1737-2.9237-.6044-.4306-.4268-1.8925-.4268-3.0975.2607s.6044.9443 1.5488 1.205c.9443.2568.6874.6874.8612 1.6318.17.9443-.1738.6044-.2569 1.5487-.0868.9443-1.2087.8612-2.0662.6875-.8612-.17.0869-.8575 0-1.8056-.0869-.9443-.6912-1.0312-.8612-.6006a5.2128 5.2128 0 0 1-1.1181 1.7187c-.6044.6044-1.2919.1738-1.8925-.34-.6044-.5175-.1738-1.6356-.1738-2.323a3.4185 3.4185 0 0 0-.5137-1.9794c-.4306-.6875-.0869-.9443.3438-2.323.4306-1.375 1.205-.7745 1.8886-1.205.6913-.427 0-.6044-.17-1.0313-.17-.4306-.4306-1.0312-.4306-1.8056 0-.7743.0907-1.6356-.2568-2.2362-.34-.6044-.6044-.6044-1.1181-1.8962-.5138-1.2843-.2569-.8575-.9444-1.6319-.6912-.7743-1.0312-1.205-1.5487-.6043-.5175.6043-.7743 1.2087-1.4618 1.3787-.6875.1738-.6044.17-1.2919.5137-.6875.3438-.17.4344-.9443.865-.7744.4269-1.205.9444-1.205 1.6319 0 .6875-.087 1.288-.3438 1.8056-.2568.5137-1.8056.5137-2.6668.0868-.8612-.4306-.6044-.7743-1.205-1.9793-.6044-1.2012-.9443-1.205-1.8887-2.2362-.9443-1.0312-1.118-1.5487-1.6356-2.0625-.5175-.5175-1.8056.4307-1.8887.7706-.0906.3438.2531.5175.8575 1.035.6044.5137.8575.5175 1.0312.9444.17.4306 0 1.205-.0869 1.9793-.0868.7744-1.0312 1.1181-1.0312 1.1181s-1.5487-1.118-3.1843-.8574c-1.6318.2568-.6006.9443-.6006.9443s0 .0869-.3438 1.8925c-.3475 1.8056.8575 1.7187 1.2881 2.2362.4307.5175-.4306 1.288-1.8887 1.4618-1.4618.1738-3.8755-.5137-4.733-1.2012a2.6253 2.6253 0 0 1-.2569-3.7018c1.1181-1.375.6006-.8575.34-1.5487-.2569-.6875-.68-1.1182-.8575-2.58-.17-1.4618.6044-.5175 1.1181-1.8056.5175-1.2918-.6875-3.1843-1.288-3.9587-.6044-.7743-1.3788-2.3193-3.5281-2.5762-2.1531-.2606-1.7187-1.5487-2.9237-3.2712-1.205-1.7187-.6044-1.288-1.6356-1.9755-1.0313-.6913-2.0625-3.785-1.8887-5.1637.17-1.375-.6044-1.375-1.2088-2.9237-.6006-1.5487.2607-1.6356-.5137-2.6668-.7744-1.0313-.9444-2.1531-1.0312-4.9862-.087-2.8406-3.0975-5.5905-3.7019-6.8823-.6006-1.292-1.6318-1.6356-2.1493-1.2881-.5175.34-.9443.6006-3.0106 1.1143-2.0624.5175-3.6111-.9443-4.5555-1.4618-.9443-.5138-2.493-2.4062-4.2155-3.1806-1.7225-.7744-4.8162 1.288-5.5905 1.375-.7744.0868-.7744-.9444-1.292-2.0625-.5174-1.118-1.458-.8612-1.7186-1.3787-.2569-.5138.5175-1.4581.9443-1.2843.4307.17 1.2919-.2607.8613-1.6356-.4306-1.3788 1.118-4.4762 1.118-4.4762s1.292-.2569 2.0663-1.2881c.7744-1.035-.7781-1.035-.7781-1.035s-2.3194.1737-3.0937.1737c-.7744 0-1.9756-.8612-1.9756-1.288 0-.4307.6837-1.035 1.8887-1.7225s.7744-2.1531.6913-2.8406c-.087-.6875-1.2088-.8575-1.2088-.8575l-1.5487-.4306c-1.3637.1473-3.4677-.3853-4.2156-.3853-.8235 0-.8235.491-2.4666.491-1.647 0-.1662-.9896-2.3042-.6572-2.138.3286-1.9718.1624-2.9615.3286-.9859.1625-3.7849.3287-4.937-.491-1.0766-.7744-2.5913-2.123-2.2362-2.4251Z"
          opacity="1" stop-color="#000" stop-opacity="1"
          style="font-variation-settings: normal; fill: rgb(204, 51, 51); stroke: rgb(0, 0, 0); stroke-width: 1.001;"
          vector-effect="none" data-originalStrokeWidth="1.001" /><text id="Rajasthan_label" x="197.8835" y="410.8193"
          style="font-size: 45.3285px; stroke-width: 3.77738; display: none;">
          <tspan id="Rajasthan_tspan" x="197.8835" y="410.8193" dy="0"
            style="font-style:normal;font-weight:400;font-size:18.8869px;font-family:Arial;text-align:center;text-anchor:middle;fill:#6a0707;stroke-width:3.77738"
            fill="#6a0707">Rajasthan</tspan>
        </text>
      </g>
    </svg>
  </g>
  <text id="credit-text-svg" font-family="Century Gothic,Segoe UI,Lucida Grande" font-size="8" font-weight="bold"
    fill="#000">
    <tspan id="credit-tspan-svg" x="57.333333333333336" y="1012.5853204116821" dy="0">
      Created with mapchart.net
    </tspan>
  </text>
</svg>