<?xml version="1.0" standalone="no"?>
<svg xmlns="http://www.w3.org/2000/svg" id="wrapper" viewBox="0 0 860 1021.361" preserveAspectRatio="xMinYMin"
  height="1021.361" width="860" style="background-color: transparent">
  <g id="map-group">
    <svg xmlns="http://www.w3.org/2000/svg" id="map" width="860" height="1021.361" version="1.1"
      viewBox="0 0 860 1021.361" preserveAspectRatio="xMinYMin">
      <g id="g1145">
        <path id="Sikkim" fill="#cc3333" fill-opacity="1" stroke="#000" stroke-dasharray="none" stroke-dashoffset="0"
          stroke-linecap="butt" stroke-linejoin="miter" stroke-miterlimit="4" stroke-opacity="1" stroke-width="1.001"
          d="M610.4677 396.0989c1.9982.2644 1.5978 4.1211 5.2316.729 6.448-6.0211-3.7887 1.6772-7.6907-10.4973-.1587-.6308 1.2654-2.5309 1.2654-2.5309s2.2136-1.5789 1.1068-3.4751c-1.1068-1.8963-2.5309-1.2655-2.8444-3.4752-.3173-2.2174 1.2617-4.4309 1.2617-5.2204 0-.7895 1.1067-6.006 1.1067-6.006l-3.4752-6.482s-2.5308-1.8962-5.0617-1.7376c-2.527.1549-3.951 2.2098-5.0579 2.8444-1.1067.6308-4.1097 1.8962-6.006 2.2135-1.8962.3136-3.9511-.1586-3.7925 1.8963.1549 2.0549 2.3684 2.8443 2.6857 3.9511.3173 1.1068.3173 3.6376-.6308 4.4271-.9519.7933-2.5308 3.9511-2.3722 4.7444.1587.7895 1.2654 6.006.4722 6.9541-.7895.9482-1.2616 4.4271-1.4203 4.8993-.1586.476 1.2654 2.2135 2.6857 4.5857 6.8106 14.0745-1.7527 2.8633 6.0325 4.6991 3.5696.8461 2.274.8121 4.2042.2229 4.1778-1.2844 3.1579 1.4543 4.7935-.8424.9859-1.39 2.6668.4608 5.6359.0605 1.0236-.1398.4797-1.715 1.8698-1.9643Z"
          opacity="1" stop-color="#000" stop-opacity="1"
          style="font-variation-settings: normal; fill: rgb(204, 51, 51); stroke: rgb(0, 0, 0); cursor: crosshair; pointer-events: auto; stroke-width: 1.001;"
          vector-effect="none" data-originalStrokeWidth="1.001" pointer-events="auto" /><text id="Sikkim_label"
          x="621.66" y="353.1765" style="font-size: 34.5671px; stroke-width: 2.88059; display: none;">
          <tspan id="Sikkim_tspan" x="621.66" y="353.1765" dy="0"
            style="font-style:normal;font-weight:400;font-size:14.403px;font-family:Arial;text-align:center;text-anchor:middle;fill:#6a0707;stroke-width:2.88059"
            fill="#6a0707">Sikkim</tspan>
        </text>
      </g>
    </svg>
  </g>
  <text id="credit-text-svg" font-family="Century Gothic,Segoe UI,Lucida Grande" font-size="8" font-weight="bold"
    fill="#000">
    <tspan id="credit-tspan-svg" x="57.333333333333336" y="1012.5853204116821" dy="0">
      Created with mapchart.net
    </tspan>
  </text>
</svg>