<?xml version="1.0" standalone="no"?>
<svg xmlns="http://www.w3.org/2000/svg" id="wrapper" viewBox="0 0 860 1021.361" preserveAspectRatio="xMinYMin"
  height="1021.361" width="860" style="background-color: transparent">
  <g id="map-group">
    <svg xmlns="http://www.w3.org/2000/svg" id="map" width="860" height="1021.361" version="1.1"
      viewBox="0 0 860 1021.361" preserveAspectRatio="xMinYMin">
      <g id="g1007">
        <path id="Tamil_Nadu" fill="#cc3333" fill-opacity="1" stroke="#000" stroke-dasharray="none"
          stroke-dashoffset="0" stroke-linecap="butt" stroke-linejoin="miter" stroke-miterlimit="4" stroke-opacity="1"
          stroke-width="1.001"
          d="M381.9514 809.786c.049.1436.1246.3854.1586.4609.1927.457-.4722.6648-1.3145.4722-.8424-.1965-.8348-.1398-1.0312 1.0274-.1965 1.171.4532 1.0577 0 1.2503-.4533.1965-1.4241.3778-2.5913.3135-1.171-.0642-.389.7178-.782 1.5601-.389.8424-.8914 1.8585-2.0586 2.3155-1.171.4533-.8801 1.1673-1.594 2.4629-.714 1.2994-1.4846 1.817-2.6518 1.6885-1.171-.1322-.8423-1.2201-1.8131-2.0625-.9746-.8423-1.307-.4721-2.342-.408-1.0388.068-1.594.1512-2.4364-.559-.8424-.7139-2.3042.4457-3.4034 1.0313-1.103.5817-.2456 1.288-.442 1.8735-.1926.5817-.4457.695-1.0274 1.2806-.5855.5817-3.5017 2.342-4.2798 2.2777a17.9199 17.9199 0 0 0-3.1201.0945c-1.3637.1284-1.6243.6383-2.4704 1.1558-.8424.5175-2.784 0-6.0287-.7177-3.241-.7139-2.7386-.7252-3.8416-1.4354-1.103-.7177-.389.3362-.7782 1.3712-.389 1.0388-1.662 1.4883-2.4401 1.749-.7782.2606-.8424.2493-.8424.2493s.578.9292 1.035 2.0322c.4533 1.103-.3324.8839-.7215 1.4656-.389.5855-.3777 1.1596-1.0312 1.9416-.646.7743-.4004.8688-.4646 1.7753-.068.9104-.1813 2.2211-.442 2.2211-.2568 0-1.0425-.3928-1.4354-.7819-.389-.389-1.4958-.3324-1.4958.1889 0 .5175.1246 2.527.1246 2.527s-.9783.3778-1.6922.3778c-.7102 0-1.6772-1.0954-1.8736-1.8774-.1889-.7781-1.8736-1.2994-2.6517-1.6242-.7782-.3249-2.444-.5893-3.0295-1.4996a3.1692 3.1692 0 0 1-.3248-.85c-1.0426-.1964-2.5158-.593-3.0975-.6648-.8461-.1058-1.9076-1.0614-4.0304-1.171-2.123-.102-2.8709.1096-3.1844.6422-.321.5288-.1057 1.8018-1.3787 2.2286-1.2768.4231-1.3825 1.5865-2.3382 2.2287-.9557.6346-.85.5288-2.123.6346-1.2767.1058-2.3343 1.4883-2.3343 3.0786 0 1.594 1.1672 1.8055 1.4845 2.867.321 1.0576.1058 2.8708-1.594 4.1438-1.6999 1.273-2.8633 2.0133-2.7576 3.0747.1058 1.0615 1.4846 1.171 4.2458 1.3826 2.7575.2115 3.819-.1058 3.9285.3173.1058.4268-.7441 3.717-1.4883 4.2495-.7404.5289-1.1672 1.3788-1.1672 1.3788s-.2115.1057-1.171.6346c-.9519.5288-1.5865.9594-2.648.9594-1.0652 0-1.492-.6421-2.3381 1.2692-.85 1.9114-1.2768 2.8708-1.8056 3.1881-.5289.3173-1.6998-.5326-3.3997-.8499-1.696-.321-5.836 1.0615-6.4744 1.4845-.6346.4269-1.4845-.7441-2.3344-.7441-.85 0-3.6074-.423-4.6689.8537-1.0614 1.273-1.171 1.9076-1.4882 3.3958-.3211 1.4846.7441 2.0172-.9557 1.5903-1.6998-.423-4.8842-.5288-5.3072-.9557-.4269-.423-2.867-1.8018-3.717-1.9075-.8499-.1096-1.594-.6422-2.1229.102-.5288.744-.6383 1.3825-1.594 1.2767-.918-.102-1.2541-.8084-1.9416-1.9944.1247.3135.3324.982.3966 1.6998.0756.8688.053 1.458-.049 2.1228-.102.6649-.6158.9217.102 1.6394.7176.7177.5628.408.9443 1.02.3853.6156 1.8698 1.2087 1.9189 1.5638.0529.3588.7177.5628 1.2087.8688.4835.306 1.9152.7932 2.225 1.3825.3059.5892-.1814 1.3334.102 2.0775.2794.7404 1.8697 2.3496 2.3532 2.7084.4873.3589 1.817 1.2314 2.0738 1.4354.2568.204.5893-.1813.7932.8688.204 1.0501.51 2.4062.2267 2.7122-.2795.306-1.02.7668-1.356 1.307-.3287.5363-.4836.9216-.2267 1.409.2568.4834.5364.9971 1.152 1.2767.6158.2833 3.1995 1.4845 4.0683 1.8433.8688.3589 1.356.5402 1.5865 1.0501.2266.5138.6422 2.2778.3853 2.5838-.2569.3097-1.3825 1.511-1.817 1.7149-.4381.204-1.5373.5666-1.5864 1.0501-.053.4873 1.356 2.2778 1.3296 3.0975-.0264.8197.2267 2.3533-.102 3.377-.3362 1.0236-1.3598 1.6204-.3853 3.154.9746 1.5374 1.817 1.1181 2.2778 1.6848.4608.5628.7668.9443 1.0237 1.0992.2568.151 1.1294.2795 1.8471-.3853.7177-.6648 3.3505-1.6092 3.9662-2.021.612-.4079 1.1484-1.0463 1.7905-.8423.6422.204 1.5336.4835 2.0965.8688.5666.3815 1.3598 1.662 1.152 1.9454-.204.2833-.9216 1.307-1.3031 1.662-.3853.3589-1.5865.3362-1.1786 1.3334.408.9973 1.103 1.9454 1.2541 2.6102.1511.6648-.102 3.0975-.4608 3.9927-.3589.8952-.7442 1.817-.5137 2.357.2304.5365.6421 1.3788.5666 1.6357-.0756.2568-.102 1.4354-.8197 2.3269-.7177.899-1.2314 1.6922-1.409 2.2286-.1813.5402-.3324 1.8434.102 1.8925.4344.0528 1.2805.4608 2.0473-.4873.7706-.9444 1.1786-1.3297 1.5865-1.3297.4118 0 1.8925 1.103 2.2514 1.6621.3588.5666.6421.593.6686 1.3863.0264.7932.3852 4.0153-.6913 4.8086-1.0766.7932-2.0473 1.2805-2.3533 2.0247-.306.7403-.7442 3.9927-.7933 4.9143-.0529.9217-.2833 1.6092-1.2843 2.3533-.9972.7442-1.662.6913-1.9416 1.613-.2795.9217-.1057 2.0964.4836 2.8141.5892.7177 1.5865 1.0237 1.662 2.021.0756 1.001.1587 2.7159-.5855 3.1503-.7404.4344-1.2012.51-1.511 1.2276-.3021.7177.204 1.4354.5893 1.9718.3853.5364 1.3826 1.9454 1.3826 2.7122 0 .7706-.3325 1.9189-.8953 2.7386-.5666.8197-1.817 2.7915-1.817 3.324 0 .5402.4874 1.9492.6158 2.0247.1284.0756 1.8132-.8423 2.6857.3589.8688 1.205-.0264 2.2513 1.7376 2.5308 1.7678.2833 2.4855.695 3.4072.8462.9217.1548 2.6593.6421 3.2486.4608.5892-.1775 4.325-2.9161 4.9937-3.1957.6648-.2833 4.529-2.7386 5.4243-3.6111.8952-.8688 4.9899-2.92 5.5036-2.92.51 0 3.377-.1246 3.8378-1.6884.4609-1.5601.5364-5.0655.8197-5.7794.2833-.7177.5364-6.4782.51-7.0675-.0265-.5893 1.6393-4.3251 1.6393-4.3251s3.124-2.5308 4.0418-2.765c.9255-.2267 2.969 0 4.4573-.0756 1.4845-.0755 3.4526-1.2314 4.6311-1.6885 1.1785-.4608 5.9645-.306 7.2941-.4873 1.3334-.1775 5.6585-.3588 6.1194-.948.4608-.5894 1.511-1.1749.8159-2.1759-.6875-.9972-1.1483-2.7121-2.9426-4.2457-1.7905-1.5374-2.5837-1.7414-2.6895-2.4062-.102-.6686 2.1003-7.1657 2.8708-7.8305.7668-.6686 2.8406-2.663 3.7623-3.6376.9217-.9708 3.7094-3.7623 3.7358-4.684.0265-.9217-.8688-1.8925-1.05-2.5082-.1814-.6157 2.765-5.2505 3.6338-5.2505.8688 0 3.275-.3778 4.072 0 .7932.389 5.4507.8725 6.4215.7479.9746-.1284 6.5802-1.4354 7.4263-2.1002.8424-.6648 1.6092-.4344.51-1.8698s-1.3032-4.48-1.3296-5.7039c-.0076-.3928.0528-1.3032.117-2.3344-.7214-.3286-1.764-2.5157-1.764-2.5157-1.0086.5062-2.2286 1.6242-2.9539.5288-.763-1.137.7064-2.0964 1.7565-3.664 1.2125-1.8283-.491-1.7074.9594-1.7074 0 0 1.341 1.4732 2.1267 3.4072-.0302-.8953-.1246-1.6243-.3475-1.9076-.7668-.9708-1.1219-4.3742-1.0728-4.9861.0491-.6195.8197-4.125.5137-4.971-.3097-.8424-.8234-3.3997-1.4354-4.7596-.6157-1.3598-1.764-4.0682-1.613-4.5064a3.0597 3.0597 0 0 1 .3514-.5666 9.8136 9.8136 0 0 1-2.8784-1.3145c-2.663-1.696-1.4505-1.6885-1.4505-1.6885s1.4467-.2418 1.6885-2.1795c.0604-.4873.2229-.6875.4382-.7102.6459-.068 1.7376 1.4354 1.7376 1.4354s.5741-.1133 1.1634-.1209c-.34-.6006-.6384-.9141-.7442-1.2276-.151-.4609-.0264-3.5545.5893-3.9398.6157-.3815 1.2843-4.4007 1.4354-4.8124.1511-.408.714-4.0191 2.2249-4.5026 1.511-.4873 3.4828-1.103 4.0985-1.9983.6119-.8952 2.9425-4.0418 3.0672-4.378.1284-.3286 0-2.7121-.408-3.0974-.4117-.3815-2.2513-2.5082-2.1984-2.9161.0491-.4118.0756-.2267 1.3787-.7933 1.307-.5628 5.2204-3.377 5.4017-4.2722.1775-.8953 1.0199-3.5847 1.0199-3.5847s2.7424-3.1504 2.765-4.2232c.0265-1.0765.1322-5.9909-.0226-6.4215-.1511-.4382-.3324-3.6905-1.8434-5.3261-1.511-1.6394-1.8434-1.7942-3.0974-2.4553-.6535-.3475-1.7792-.6233-2.8066-.7932Zm-9.8326 57.099-.0264.151a.2606.2606 0 0 0 .0264-.151Z"
          opacity="1" stop-color="#000" stop-opacity="1"
          style="font-variation-settings: normal; fill: rgb(204, 51, 51); stroke: rgb(0, 0, 0); stroke-width: 1.001;"
          vector-effect="none" data-originalStrokeWidth="1.001" /><text id="Tamil_Nadu_label" x="-600.3228" y="737.6471"
          style="font-size: 45.3285px; stroke-width: 3.77738; display: none;" transform="rotate(-60)">
          <tspan id="Tamil_Nadu_tspan" x="-600.3228" y="737.6471" dy="0"
            style="font-style:normal;font-weight:400;font-size:18.8869px;font-family:Arial;text-align:center;text-anchor:middle;fill:#6a0707;stroke-width:3.77738"
            fill="#6a0707">Tamil Nadu</tspan>
        </text>
      </g>
    </svg>
  </g>
  <text id="credit-text-svg" font-family="Century Gothic,Segoe UI,Lucida Grande" font-size="8" font-weight="bold"
    fill="#000">
    <tspan id="credit-tspan-svg" x="57.333333333333336" y="1012.5853204116821" dy="0">
      Created with mapchart.net
    </tspan>
  </text>
</svg>