<?xml version="1.0" standalone="no"?>
<svg xmlns="http://www.w3.org/2000/svg" id="wrapper" viewBox="0 0 860 1021.361" preserveAspectRatio="xMinYMin"
  height="1021.361" width="860" style="background-color: transparent">
  <g id="map-group">
    <svg xmlns="http://www.w3.org/2000/svg" id="map" width="860" height="1021.361" version="1.1"
      viewBox="0 0 860 1021.361" preserveAspectRatio="xMinYMin">
      <g id="g1113">
        <path id="West_Bengal" fill="#cc3333" fill-opacity="1" stroke="#000" stroke-dasharray="none"
          stroke-dashoffset="0" stroke-linecap="butt" stroke-linejoin="miter" stroke-miterlimit="4" stroke-opacity="1"
          stroke-width="1.001"
          d="M624.0511 393.4547a1.4316 1.4316 0 0 0-.1058.0076c-1.4731.2002-2.8972 2.7763-4.495 2.7575-.7555-.0152-1.5261-.3778-2.3042-.8235a26.8194 26.8194 0 0 1-1.4506 1.4316c-3.6338 3.3921-3.2296-.4646-5.2316-.729-1.3863.2455-.8424 1.8207-1.866 1.9567-2.969.4041-4.6462-1.4468-5.6359-.0567-1.6356 2.2966-.6157-.4382-4.7935.8424-1.9302.5892-.6308.6232-4.2042-.2229-2.6442-.6233-3.3845.2569-3.5016 1.1408.7819 2.3042-.1511 1.171 0 0a33.951 33.951 0 0 0-.9293-2.3458c-.5855.9141-.3324 3.6263.7933 3.8152.9481.1662.2795 1.8887.0302 3.2447-.5402 2.969-.559 6.6973-.9066 7.2262-.2644.3928-.9028.914-1.6658 1.4807.219.5704.2795 1.1634.3777 1.851.1587 1.1105-.7517 4.4723-1.3863 4.7065-.6308.2418-.4306.5175-1.0274 1.7036-.593 1.1899.238 3.1277 1.069 3.5205.831.3967 1.545 1.2315 1.5034 1.662-.0378.4383.7932 2.7727 1.424 3.566.6347.7932 2.2967 1.3825 3.2486 1.9377.9443.5553.748 1.9378.7932 2.493.0378.5554-.7177 1.069-1.2314 1.5866-.5137.51-1.545.0755-2.5308.1926-.9897.121-2.1002 1.0313-2.8104 2.021-.714.9896-.831 2.7688-.831 4.7481 0 1.9794.8688 2.0965 1.2239 3.4827.3588 1.3863-.8688 1.7414-.8688 3.0484s.4344.7932.593 1.4618c.1587.6724-.117.9897-.6724 1.662a1.0803 1.0803 0 0 1-.2417.2154 1.2465 1.2465 0 0 0 .3966-.2946c.5515-.6724.831-.9897.6686-1.662-.1209-.5138-.4004-.34-.5288-.8122a2.8293 2.8293 0 0 1 1.4656-.102c1.3787.3022 1.1937.899 1.9416 1.647.7441.744.4457 1.0425.2228 2.5383-.2266 1.492.1134 1.2692.1134 2.1305 0 .8574.1813 5.0768.1473 5.598-.0378.525-.1133 1.3448-.374 2.24-.2606.899-1.6054 3.5885-2.0926 4.2571-.4836.6762-.4836 1.0124-.6724 2.3193a8.5444 8.5444 0 0 1-.967 2.799c-.2267.4156-.6762.6725-.9368 1.681-.2607 1.0086.151 1.1219.2266 1.7187s-.7857.782-1.1596.6724c-.374-.1133-.6724.4155-.933.899-.2645.4835-.4873 1.4165-.4873 1.7905 0 .374-.5213.559-1.0048 1.084-.4873.5251-.9746.5591-1.0464 1.0842-.0755.5213-1.1218 1.1181-1.4958.967-.374-.151-.4117-1.715-.559-2.1644-.1511-.4495-.6724.374-1.122 1.2692-.4457.899-1.7186.4873-2.2021 1.1596-.4873.6724-.559 2.3911-.0756 3.6225.4873 1.2314-.6724 1.2692-.933 1.1937-.2644-.0756-1.4958-.7102-2.3155-.0378-.8235.6724-.2645.7101-.6724 1.4543-.4117.748-2.4289 1.2352-2.8028 1.0841-.3702-.151-1.8283-.2984-2.3118.3022-.491.5968-1.832 1.681-1.7564 2.3533.0755.6724-.6724 1.715-1.1975 1.9756-.5213.2644-2.0511-.6724-2.8368-1.2314-.782-.5591-2.2778-.4458-2.9501-.374-.6724.0755-.9708.5628-1.9076.8197-.933.2644-1.7565 1.1256-1.9794 1.3863-.2228.2644-1.3787.4835-1.6809 1.084-.2946.597.2267.3325.6346.9293.4155.6006-.219 1.3825-.5553 2.0171-.34.6346-2.6177 3.139-3.2863 3.3241-.6761.1889-1.7942-.3324-2.3155-.8197-.525-.4872-2.0927-.8234-3.139-.8952-1.0463-.0756-2.4289 2.1267-3.0597 2.5006-.6384.3702-1.6091 1.7943-2.3533 2.9124-.748 1.1219-.1133 3.3996-.0755 3.7736.0377.374.374.7857.933 1.0085.559.2267.9707-.9367 1.7187-1.307.7479-.3777.7063.374 1.3032 1.8661.6006 1.492.7101 1.1936 1.832 1.2314 1.1219.0378 1.2314.7102 2.206 1.681.967.9707 3.9171 1.2692 5.5263 1.5336 1.6054.2606 1.4165-.6044 2.3117-1.0124.899-.408 1.6054-.1888 2.5045-.151.8952.0377 1.1218.676 1.0463 1.3107-.0756.6346 0 1.118.3022 2.3533.2946 1.2314-.1511 1.1181-.5666 1.681a1.3712 1.3712 0 0 0 .2644 1.9037c.6346.4873 1.9793.7102 3.0974 1.0464 1.122.3361.899-.1134 1.1597-.4458.2644-.34 1.1181.4458 1.7187.8915.5968.4533-.0756.7517-.4457 1.4958-.3778.748-.5289.7857-.6006 2.206-.0756 1.4165.7819.8575 1.6809 1.492.8952.6347.4835.4836.4835 1.5677s-.7441.933-1.341 1.6432c-.5968.7101.2267 1.5713 1.2315 1.3447 1.0085-.2266 1.6053.2266 1.8282 1.0841.2266.8575-.4835 1.1937-.7441 1.6432-.2645.4495.3324 1.7187 1.3787 2.0171 1.0463.3022.9746 1.0463 1.0841 2.3155.1133 1.2692-.7479 1.2692-1.1559 1.7187-.4117.4458-.0755.7064 0 1.3788a.559.559 0 0 1-.0377.3022c3.8 2.8217 8.5595 6.822 8.9448 7.0297.5817.3173 10.622 3.2259 12.8922 3.2259 2.274 0 3.5885 2.002 4.5442 3.5356.0982.1662.17.3097.2342.4533 1.4165-.1625 4.9974-.5666 4.8992-1.4997-.1095-1.0652-1.001-3.4147-.5552-4.4233.4495-1.0085 2.0624-2.3042 2.9048-2.0246.8423.2795 2.5308 1.239 2.4175 1.8546-.1133.6195-.899 2.1267-.5628 3.022.34.899 1.2918 2.1266 2.8066 1.2843 1.5109-.8386 4.0342.6308 5.2656-.9935 1.2352-1.6243 3.0257-2.5346 3.7018-3.7698.6724-1.2314 1.409-1.613 2.361-.6044.9518 1.0086 4.699 2.6328 5.5376 2.1267.8423-.5024 1.915-1.0048 2.1984-1.7905.2795-.7857-.0038-3.3128.049-4.3213.0567-1.0124 1.2844-2.2967.8953-3.7019-.3928-1.3976-1.1823-2.527-1.9113-4.1513-.7253-1.6243-1.4468-2.1758-1.4468-3.241s.1625-5.3865-.6799-6.6217c-.8386-1.2315-1.7263-.559-2.0058-2.4629-.2795-1.9076.6044-3.0294.4382-4.2042-.17-1.1785-.0529-2.7424-.389-4.2571-.34-1.511-1.9643-1.8585-1.3977-3.09.5553-1.2351 2.2287-1.7904 2.342-2.8518.1133-1.0652-.2796-4.3742-1.5714-4.5442-1.2881-.1662-5.6585-.7781-5.4394-1.4505.2266-.6724 1.2427-1.5185 1.356-2.0776.1133-.559 1.0652-4.9861-.8952-6.1647-1.9642-1.1747-4.5366 0-5.4885-2.9728-.952-2.969-.2871-4.2684.7781-5.6736 1.0652-1.3976 2.1871-1.2843 3.139-3.0219.9557-1.7376.7857-2.459.5062-4.0833-.2795-1.628-.8386-5.1675-.5553-5.8928.2795-.7328.4948-2.07-.7932-2.5195-1.2881-.4495-11.4304.1058-12.1594-1.5185-.729-1.6242-3.9814-5.0503-4.2043-6.788-.2266-1.7375-.2908-4.087.102-4.5932.3929-.5062.1776-.9443 2.1947-1.1143 2.0171-.1662 4.0871-.3929 4.0871-1.5714 0-1.1786.2267-4.31.8424-5.4885.6157-1.1748-.1133-1.919 1.9604-2.1456 2.0738-.2229 3.6943-1.3334 4.5933-1.4996.8953-.17 5.1108.2266 5.6699.17.5628-.0605 3.581-1.3032 2.9085-3.936-.6723-2.6367-.6648-4.3554-1.8433-4.6954-1.1786-.3361-4.0343-.2908-4.0343-1.6393 0-1.3448.2267-3.4752-1.4014-3.4752-1.6242 0-3.3618.7932-4.3742.6233-1.0085-.17-4.4195-1.73-4.2533-2.682.1662-.9557.2644-1.579-.967-2.2513-1.2314-.6724-4.1438-2.852-4.5933-3.1881-.4457-.34-3.1957-1.749-3.4752-2.0285-.2795-.2795-.4382-.3853-.7743-.049-.2305.2303 2.58-2.4478 2.7499-4.3252.0755-.8688-1.9038-1.6847-2.3307-1.7527-.2266-.0378 9.3793-7.2601 6.788-4.7821-.9708.9292 2.4553-.1058 3.2108-2.1267.4268-1.1483-1.851-2.8821-1.6734-4.0833.0755-.5364 4.0229 8.0156 7.7512 9.9949.6535.3513 2.9652.8764 2.9199-.1209-.0453-1.0274-2.4402-3.5885-1.8245-4.3704.5628-.7177 3.4299 1.2843 4.6953 1.2994 1.2767.0151.9443-1.9642 1.6696-1.8736 2.3646.2909 5.0239 6.9315 7.585 8.2725 2.7197 1.424 5.2996.2833 7.396.6913 3.3128.6497.6649-4.7822 1.8888-3.547 1.0047 1.0199.6535-2.172.7932-4.0154.0756-1.0085-2.1153-3.0408-1.5034-3.3127.5515-.2418 1.9114-.3135.389-1.8056-.9178-.9066-.8234-2.6442-.151-2.2967 1.4203.7404 1.22-1.8887 1.2163-2.1077-.0378-1.1786-2.8708-2.1985 2.8217-1.2843.899.1435-.2266-.6913-.7441-2.2816-.6875-2.1002.1057-5.2656-1.3334-5.6736-1.02-.287-3.4828.151-4.6953-.5742-1.8925-1.1294-2.7084-3.4978-5.3375-3.7471a1.1408 1.1408 0 0 0-.1964-.0076Zm-39.262 60.1699c-.2003.083-.3627.1889-.427.3475a.7857.7857 0 0 1-.0868.1624c0 .0265 0 .0567.0076.087a.9179.9179 0 0 0 .2342-.3287c.0453-.1133.151-.1965.2757-.2682Zm-20.7001 91.3786.0227.204c.0037.0075.0264.015.0264.0188.0378.1511.899.2607 1.6054.2191.4306-.0227.8272-.0227 1.069-.151-.2455.0604-.5742.0528-.9141.0755-.7102.0377-1.5714-.0756-1.6092-.2267-.0113-.0378-.0755-.0869-.204-.1398Zm52.4111 10.5502c-.593 0-.8952.17-.0869.8763 1.613 1.4128 3.834 1.6243 3.834 1.6243l-.2039-.51c.2002-.4041-.9972-1.8244-1.7036-1.8244-.355 0-1.2465-.1662-1.8396-.1662Zm6.059.068c-.7026.7063-2.3043.51-.8915 1.2163 1.409.7063 2.1078.5061 2.1078.5061l.102-1.322Zm-7.5473.2002s-1.4203.408-1.8244.9103c-.2569.3249-.491.6648-.7064 1.0161h.7064c2.119-.6044 1.8244-1.9264 1.8244-1.9264Zm-13.727.7101-1.016.4042c.102 1.511.7139 1.8094.7139 1.8094s.8083.1133.7101-.5931a11.555 11.555 0 0 0-.408-1.6205Zm14.9434 1.1483c-.7782.6573-1.4959.476-1.3184 2.2098.1814 1.7376-.0113 1.1521.831 3.1239.8349 1.9756.7291 2.4515 1.1484 3.1088.4155.661 1.7943 2.391 2.0927 1.5525.3022-.8386.5288-1.4316.7101-2.4478.1775-1.0199.7781-1.2012.5364-2.3986-.238-1.1974-.5402-1.4354-1.0765-2.8708-.5402-1.4354-2.9237-2.2778-2.9237-2.2778Zm6.6368.3702s-.9481.408-2.0247.408c-1.0803 0-.9065.6043-.846 1.5034.0603.8952.4154 1.3787 1.1331 2.3948.7177 1.02.5477 1.6205 1.0275 2.5158.4797.899 4.004 1.2465 4.7821 1.0652.7782-.1813 1.0275-1.798.3664-3.4148-.6572-1.613-1.1445-.1133-1.9226-.3513-.7782-.238-1.0124-1.3107-1.1333-2.4477-.117-1.137-.8423-1.4354-1.3825-1.6734Zm-12.8997.3022-.51.491c-1.1067 1.1106.306 1.8245 1.0161 1.6243.7026-.204 2.2098-.8121 2.2098-.8121s.6044-.7101-.2002-.9141a26.691 26.691 0 0 0-2.5157-.3853Zm-4.6802.763a3.4525 3.4525 0 0 0-1.1823.136c-.8046.3022-2.1078 1.0086-1.8056 1.0086 2.9237.8083 2.9199.714 2.9199.714s2.0285-.1059 1.9265-.8122c-.102-.7064.3021-.9104-.102-.9104-.2531 0-1.02-.1209-1.7527-.136Zm-5.1335.3362c-.1586-.015-.3513.0945-.6232.4382-1.0766 1.3787-.8386 2.2173-1.4354 3.173-.6006.9594-1.681.4873-.8424 1.6243.8348 1.137 1.8018 1.5034 1.8018 1.5034s.4155 1.307 1.2503.049c.8386-1.254 2.1003-1.4882 1.6243-2.6819-.4797-1.2012-.3664-1.6809-.8424-2.2815-.3626-.4495-.4532-1.7716-.933-1.8245Zm11.2302.9821c-.4193 1.2541-.2418-.0037-.5402 1.5488-.3022 1.56.0567 1.3787-.185 2.6366-.238 1.2578-.0567 1.9264.423 2.3495.4797.4155-.4797 1.307.6573.5893 1.137-.7177 1.2465-.4873 1.3674-2.1607.1208-1.6771.3777-.9594.136-2.7575-.2418-1.7942-1.8585-2.2097-1.8585-2.2097Zm-3.173.1851c-.4797.7177-.4873.0605-.9633 1.3146-.4797 1.2578-1.0123 1.2503-.4721 2.4477.5364 1.1974-.6648 2.1531.5892 1.6734 1.258-.4797 1.6168-.7177 1.8585-1.4354.238-.7177.7177-.3475.355-1.6054a9.8665 9.8665 0 0 0-1.0651-2.3458Zm-4.3327 1.6092a1.239 1.239 0 0 0-.1624.0113c-.4873.0416-1.2465.17-1.2465.17.0604.6006.355 1.3259.2342 2.4629-.1171 1.1407.0642 1.9642.5401 2.3835.4798.4193 2.3307.2493 2.4515-.0529.1172-.2984.544-.4155.3022-1.4354-.238-1.0199-.1284-.6044-.6081-1.8056-.4798-1.1974-1.0766-1.662-1.3146-1.7225a1.715 1.715 0 0 0-.1964-.0113Z"
          opacity="1" stop-color="#000" stop-opacity="1"
          style="font-variation-settings: normal; fill: rgb(204, 51, 51); stroke: rgb(0, 0, 0); stroke-width: 1.001;"
          vector-effect="none" data-originalStrokeWidth="1.001" /><text id="West_Bengal_label" x="287.5166" y="738.214"
          style="font-size: 38.8783px; stroke-width: 3.23987; display: none;" transform="rotate(-30)">
          <tspan id="West_Bengal_tspan" x="287.5166" y="738.214" dy="0"
            style="font-style:normal;font-weight:400;font-size:16.1994px;font-family:Arial;text-align:center;text-anchor:middle;fill:#6a0707;stroke-width:3.23987"
            fill="#6a0707">West Bengal</tspan>
        </text>
      </g>
    </svg>
  </g>
  <text id="credit-text-svg" font-family="Century Gothic,Segoe UI,Lucida Grande" font-size="8" font-weight="bold"
    fill="#000">
    <tspan id="credit-tspan-svg" x="57.333333333333336" y="1012.5853204116821" dy="0">
      Created with mapchart.net
    </tspan>
  </text>
</svg>